<svg width="482" height="159" viewBox="0 0 482 159" fill="none" xmlns="http://www.w3.org/2000/svg">
<path d="M168.49 20.5945C168.49 19.6109 168.839 18.7712 169.535 18.0755C170.256 17.3557 171.109 16.9959 172.093 16.9959H172.129L208.125 16.78H208.198C209.182 16.78 210.023 17.1398 210.72 17.8595C211.44 18.5553 211.801 19.3949 211.801 20.3785C211.801 21.3622 211.44 22.2138 210.72 22.9335C210.023 23.6293 209.182 23.9771 208.198 23.9771H208.162L193.821 24.0491L193.641 65.3608V65.3968C193.641 66.3564 193.28 67.1841 192.56 67.8798C191.863 68.5755 191.022 68.9234 190.037 68.9234C189.053 68.9234 188.2 68.5755 187.479 67.8798C186.782 67.1841 186.434 66.3564 186.434 65.3968V65.3248L186.614 24.0851L172.129 24.193H172.093C171.109 24.193 170.256 23.8452 169.535 23.1495C168.839 22.4297 168.49 21.5781 168.49 20.5945Z" fill="black"/>
<path d="M216.125 19.4789C216.125 18.5193 216.473 17.7036 217.17 17.0319C217.866 16.3361 218.719 15.9883 219.728 15.9883C220.713 15.9883 221.553 16.3361 222.25 17.0319C222.971 17.7036 223.331 18.5193 223.331 19.4789V35.1687C224.244 33.2255 225.577 31.7381 227.331 30.7065C229.084 29.6509 230.778 29.1231 232.411 29.1231C236.182 29.1231 239.257 29.8908 241.635 31.4262C244.037 32.9616 245.803 35.0967 246.932 37.8317C248.061 40.5666 248.625 43.7213 248.625 47.2959V47.6198L248.589 65.7926V65.8286C248.589 66.7882 248.229 67.6159 247.508 68.3116C246.812 68.9834 245.971 69.3192 244.986 69.3192C244.001 69.3192 243.149 68.9834 242.428 68.3116C241.731 67.6159 241.383 66.7882 241.383 65.8286V65.7926L241.419 47.7997V47.7278C241.419 44.0332 240.807 41.2143 239.581 39.2711C238.356 37.3279 235.966 36.3562 232.411 36.3562C229.408 36.3562 227.15 37.3998 225.637 39.487C224.148 41.5742 223.403 44.2611 223.403 47.5478V65.8646C223.403 66.8242 223.043 67.6519 222.322 68.3476C221.625 69.0194 220.785 69.3552 219.8 69.3552C218.767 69.3552 217.89 69.0074 217.17 68.3116C216.473 67.5919 216.125 66.7762 216.125 65.8646V19.4789Z" fill="black"/>
<path d="M273.019 29.1951C276.214 29.1951 279.145 29.9868 281.811 31.5701C284.477 33.1535 286.615 35.2887 288.225 37.9756C289.858 40.6386 290.675 43.6014 290.675 46.8641C290.675 47.5358 290.639 48.2196 290.567 48.9153C290.471 49.8029 290.062 50.5586 289.342 51.1824C288.645 51.7822 287.852 52.082 286.964 52.082L261.777 52.118C262.186 53.8453 262.954 55.4647 264.083 56.9761C265.212 58.4875 266.581 59.711 268.191 60.6467C269.824 61.5823 271.602 62.0501 273.524 62.0501C275.589 62.0501 277.439 61.5463 279.073 60.5387C280.706 59.5311 281.979 58.3676 282.892 57.0481C283.18 56.5923 283.613 56.2084 284.189 55.8965C284.79 55.5847 285.354 55.4287 285.883 55.4287C286.867 55.4287 287.708 55.7886 288.405 56.5083C289.125 57.228 289.486 58.0797 289.486 59.0633C289.486 59.831 289.27 60.5147 288.837 61.1145C287.348 63.2976 285.294 65.1929 282.676 66.8002C280.081 68.3836 277.067 69.1753 273.632 69.1753C270.869 69.1753 268.299 68.6355 265.921 67.5559C263.567 66.4764 261.513 65.0009 259.759 63.1297C258.006 61.2584 256.637 59.1113 255.652 56.6882C254.691 54.2412 254.21 51.6622 254.21 48.9513C254.21 46.3363 254.691 43.8533 255.652 41.5022C256.613 39.1272 257.946 37.016 259.651 35.1687C261.381 33.3214 263.387 31.87 265.669 30.8144C267.951 29.7349 270.401 29.1951 273.019 29.1951ZM283.252 44.8849C282.796 42.5338 281.619 40.5306 279.721 38.8753C277.823 37.2199 275.589 36.3922 273.019 36.3922C270.401 36.3922 268.083 37.2439 266.065 38.9472C264.071 40.6506 262.726 42.6418 262.029 44.9209L283.252 44.8849Z" fill="black"/>
<path d="M316.654 41.8621V41.3943L316.618 20.6305C316.618 19.6468 316.966 18.8072 317.663 18.1114C318.359 17.4157 319.188 17.0559 320.149 17.0319L329.626 16.8519C330.154 16.828 330.67 16.816 331.175 16.816C331.679 16.816 332.172 16.816 332.652 16.816C335.295 16.816 337.865 17.1038 340.363 17.6796C342.861 18.2554 345.095 19.143 347.065 20.3426C349.059 21.5421 350.632 23.1015 351.785 25.0207C352.962 26.916 353.551 29.1951 353.551 31.858C353.551 35.3127 352.362 38.2875 349.984 40.7825C351.665 42.006 353.034 43.6254 354.091 45.6406C355.148 47.6318 355.677 49.9469 355.677 52.5858C355.677 55.9925 354.944 58.8714 353.479 61.2224C352.013 63.5495 349.996 65.3248 347.425 66.5483C344.855 67.7719 341.9 68.4196 338.561 68.4916L320.365 68.5276H320.293C319.308 68.5276 318.456 68.1797 317.735 67.484C317.038 66.7643 316.69 65.9126 316.69 64.929L316.654 41.8621ZM346.344 32.0739C346.344 29.8908 345.6 28.2235 344.11 27.0719C342.645 25.8964 340.795 25.0927 338.561 24.6609C336.351 24.229 334.117 24.0131 331.859 24.0131C331.523 24.0131 331.175 24.0251 330.815 24.0491C330.454 24.0491 330.106 24.0491 329.77 24.0491L323.824 24.1571L323.86 38.0116L337.733 37.7957C339.198 37.7717 340.579 37.6038 341.876 37.2919C343.198 36.956 344.267 36.3802 345.083 35.5646C345.924 34.7249 346.344 33.5613 346.344 32.0739ZM338.417 61.2944C341.636 61.2464 344.11 60.5627 345.84 59.2432C347.593 57.8997 348.47 55.6206 348.47 52.4059C348.47 49.551 347.521 47.6078 345.624 46.5762C343.726 45.5206 341.3 44.9928 338.345 44.9928H337.877L323.86 45.2088L323.896 61.2584L338.417 61.2944Z" fill="black"/>
<path d="M386.772 33.6213C386.772 35.5406 385.847 36.6081 383.998 36.8241C383.325 36.896 382.472 36.6801 381.44 36.1763C380.407 35.6485 379.362 35.3846 378.305 35.3846C376.215 35.3846 374.557 35.9244 373.332 37.004C372.107 38.0596 371.231 39.487 370.702 41.2863C370.174 43.0856 369.909 45.1008 369.909 47.3319V65.9006C369.909 66.9562 369.585 67.7958 368.936 68.4196C368.312 69.0434 367.435 69.3552 366.306 69.3552C365.201 69.3552 364.324 69.0434 363.676 68.4196C363.027 67.7958 362.703 66.9442 362.703 65.8646V32.7217C362.703 31.6421 362.967 30.7545 363.496 30.0587C364.048 29.363 364.793 29.0151 365.73 29.0151C366.282 29.0151 366.919 29.255 367.639 29.7349C368.384 30.1907 368.9 30.9824 369.189 32.1099L369.549 34.7009C369.861 34.0292 370.462 33.2495 371.351 32.3618C372.239 31.4742 373.296 30.7065 374.521 30.0587C375.747 29.387 377.02 29.0511 378.341 29.0511C380.791 29.0511 382.809 29.339 384.394 29.9148C385.98 30.4666 386.772 31.7021 386.772 33.6213Z" fill="black"/>
<path d="M408.319 28.9072C410.097 28.9072 411.827 29.267 413.508 29.9868C415.214 30.6825 416.727 31.5701 418.048 32.6497C419.393 33.7053 420.39 34.7969 421.039 35.9244L421.435 32.4698C421.435 31.4862 421.723 30.6465 422.3 29.9508C422.876 29.2311 423.657 28.8712 424.642 28.8712C425.627 28.8712 426.468 29.2311 427.164 29.9508C427.885 30.6465 428.245 31.4862 428.245 32.4698V32.5417L428.173 65.8646C428.173 66.8482 427.813 67.6999 427.092 68.4196C426.396 69.1153 425.555 69.4632 424.57 69.4632C423.585 69.4632 422.804 69.1153 422.228 68.4196C421.651 67.6999 421.363 66.8482 421.363 65.8646L420.967 62.9857C419.718 65.1209 417.892 66.7163 415.49 67.7719C413.088 68.8035 410.674 69.3192 408.247 69.3192C405.533 69.3192 402.987 68.7915 400.609 67.7359C398.23 66.6563 396.141 65.1809 394.339 63.3096C392.537 61.4384 391.12 59.2912 390.087 56.8682C389.078 54.4451 388.574 51.8901 388.574 49.2032C388.574 46.5402 389.066 43.9972 390.051 41.5742C391.06 39.1272 392.453 36.956 394.231 35.0608C396.033 33.1415 398.122 31.6421 400.501 30.5625C402.903 29.459 405.509 28.9072 408.319 28.9072ZM420.751 49.1312C420.751 46.7801 420.198 44.621 419.093 42.6538C418.012 40.6865 416.535 39.1032 414.661 37.9036C412.787 36.7041 410.65 36.1043 408.247 36.1043C405.893 36.1043 403.767 36.7041 401.87 37.9036C399.972 39.1032 398.471 40.6985 397.366 42.6897C396.261 44.657 395.708 46.7921 395.708 49.0952C395.708 51.4223 396.273 53.5815 397.402 55.5727C398.531 57.5399 400.044 59.1233 401.942 60.3228C403.864 61.5223 405.977 62.1221 408.283 62.1221C410.589 62.1221 412.679 61.5223 414.553 60.3228C416.451 59.1233 417.952 57.5399 419.057 55.5727C420.186 53.5815 420.751 51.4343 420.751 49.1312Z" fill="black"/>
<path d="M439.163 25.3806C438.058 25.3806 437.157 25.0447 436.46 24.373C435.764 23.6772 435.404 22.8256 435.38 21.818L435.307 19.0831C435.307 18.1714 435.716 17.4397 436.533 16.8879C437.349 16.3122 438.13 16.0243 438.875 16.0243C439.884 16.0243 440.724 16.3721 441.397 17.0679C442.094 17.7636 442.454 18.6032 442.478 19.5869L442.514 21.746C442.514 22.6816 442.202 23.5213 441.577 24.265C440.952 25.0087 440.148 25.3806 439.163 25.3806ZM435.271 32.1819C435.271 31.2703 435.656 30.5265 436.424 29.9508C437.193 29.375 437.938 29.0871 438.658 29.0871C439.715 29.0871 440.616 29.399 441.361 30.0227C442.105 30.6465 442.478 31.4742 442.478 32.5058V32.5417L442.55 65.8646C442.55 66.8242 442.19 67.6399 441.469 68.3116C440.772 68.9834 439.932 69.3192 438.947 69.3192C437.938 69.3192 437.085 68.9834 436.388 68.3116C435.692 67.6159 435.344 66.7882 435.344 65.8286L435.271 32.1819Z" fill="black"/>
<path d="M456.602 34.7729C457.9 33.5014 459.449 32.2419 461.251 30.9944C463.076 29.7469 465.19 29.1231 467.592 29.1231C470.739 29.1231 473.357 29.9628 475.447 31.6421C477.537 33.2975 479.074 35.2287 480.059 37.4358C480.828 39.1871 481.284 40.9264 481.428 42.6538C481.597 44.3571 481.681 45.9645 481.681 47.4759V65.6487C481.681 66.6323 481.32 67.484 480.6 68.2037C479.903 68.8994 479.062 69.2473 478.077 69.2473C477.093 69.2473 476.24 68.8994 475.519 68.2037C474.823 67.484 474.474 66.6323 474.474 65.6487V47.4759C474.474 46.0604 474.402 44.7529 474.258 43.5534C474.138 42.3539 473.874 41.2983 473.465 40.3867C473.009 39.3311 472.3 38.3954 471.34 37.5798C470.379 36.7401 469.154 36.3203 467.664 36.3203C464.109 36.3203 461.371 37.6757 459.449 40.3867C457.551 43.0976 456.614 46.7561 456.638 51.3623L456.674 65.7207C456.674 66.7043 456.314 67.5559 455.594 68.2757C454.897 68.9714 454.056 69.3192 453.071 69.3192C452.062 69.3192 451.21 68.9714 450.513 68.2757C449.816 67.5559 449.468 66.6923 449.468 65.6847L449.396 32.6137C449.396 31.6301 449.66 30.7904 450.189 30.0947C450.741 29.375 451.51 29.0151 452.495 29.0151C453.48 29.0151 454.236 29.375 454.765 30.0947C455.293 30.7904 455.702 31.6301 455.99 32.6137L456.602 34.7729Z" fill="black"/>
<path d="M199.406 102.637C199.406 105.109 198.685 107.364 197.244 109.403C195.827 111.418 193.785 113.253 191.118 114.909C192.391 116.492 193.581 117.955 194.686 119.299C195.791 120.642 196.811 121.89 197.748 123.041C198.253 121.242 198.541 119.419 198.613 117.572C198.637 116.732 198.973 115.988 199.622 115.34C200.295 114.693 201.099 114.369 202.036 114.369C202.733 114.369 203.477 114.633 204.27 115.161C205.063 115.664 205.459 116.336 205.459 117.176C205.459 121.422 204.546 125.405 202.721 129.123C204.498 131.378 205.831 133.069 206.72 134.197C207.609 135.301 208.113 135.936 208.234 136.104C208.546 136.536 208.702 137.16 208.702 137.976C208.702 138.935 208.342 139.727 207.621 140.351C206.924 140.974 206.108 141.286 205.171 141.286C204.09 141.286 203.189 140.806 202.468 139.847C201.724 138.839 201.027 137.916 200.379 137.076C199.73 136.236 199.166 135.505 198.685 134.881C197.1 136.584 195.202 138.036 192.992 139.235C190.782 140.435 188.248 141.034 185.389 141.034C182.627 141.034 180.105 140.435 177.823 139.235C175.541 138.036 173.715 136.392 172.346 134.305C171 132.218 170.328 129.843 170.328 127.18C170.328 123.557 171.289 120.702 173.21 118.615C175.156 116.504 177.714 114.597 180.885 112.893C179.828 111.502 178.735 109.943 177.606 108.215C176.477 106.464 175.913 104.521 175.913 102.386C175.913 100.298 176.453 98.4032 177.534 96.6998C178.615 94.9965 180.032 93.641 181.786 92.6334C183.564 91.6258 185.449 91.122 187.443 91.122C189.701 91.122 191.731 91.6258 193.532 92.6334C195.334 93.641 196.763 95.0205 197.82 96.7718C198.877 98.4991 199.406 100.454 199.406 102.637ZM186.903 109.727C188.896 108.527 190.338 107.34 191.226 106.164C192.115 104.965 192.56 103.777 192.56 102.602C192.56 101.33 192.091 100.25 191.154 99.3628C190.242 98.4751 189.113 98.0313 187.767 98.0313C186.374 98.0313 185.185 98.4511 184.2 99.2908C183.215 100.13 182.723 101.258 182.723 102.673C182.723 103.681 183.059 104.665 183.732 105.624C184.404 106.584 185.461 107.951 186.903 109.727ZM185.101 118.147C182.987 119.251 181.125 120.498 179.516 121.89C177.907 123.281 177.102 124.877 177.102 126.676C177.102 128.787 177.883 130.562 179.444 132.002C181.029 133.441 183.023 134.161 185.425 134.161C187.275 134.161 188.992 133.681 190.578 132.722C192.163 131.762 193.436 130.73 194.397 129.627C192.884 127.756 191.359 125.872 189.821 123.977C188.284 122.058 186.71 120.115 185.101 118.147Z" fill="black"/>
<path d="M234.285 91.5538C234.285 90.6182 234.669 89.8625 235.438 89.2867C236.206 88.711 236.951 88.4231 237.672 88.4231C238.681 88.4471 239.569 88.771 240.338 89.3947C241.107 90.0185 241.491 90.8581 241.491 91.9137L241.527 112.138L268.479 112.102L268.515 91.9137C268.443 90.9541 268.767 90.1384 269.488 89.4667C270.233 88.771 271.097 88.4231 272.082 88.4231C273.067 88.4231 273.92 88.759 274.641 89.4307C275.361 90.1024 275.722 90.9301 275.722 91.9137L275.686 137.652C275.686 138.611 275.325 139.439 274.605 140.135C273.908 140.806 273.067 141.142 272.082 141.142C271.097 141.142 270.245 140.818 269.524 140.171C268.827 139.499 268.479 138.683 268.479 137.724V119.371L241.563 119.407L241.599 137.76C241.599 138.743 241.251 139.571 240.554 140.243C239.858 140.914 239.005 141.25 237.996 141.25C237.011 141.25 236.158 140.914 235.438 140.243C234.741 139.547 234.393 138.719 234.393 137.76C234.369 130.131 234.345 122.502 234.321 114.873C234.321 107.22 234.309 99.5787 234.285 91.9497V91.5538Z" fill="black"/>
<path d="M299.395 101.522C302.589 101.522 305.52 102.314 308.186 103.897C310.853 105.48 312.991 107.616 314.6 110.302C316.234 112.965 317.05 115.928 317.05 119.191C317.05 119.863 317.014 120.546 316.942 121.242C316.846 122.13 316.438 122.885 315.717 123.509C315.021 124.109 314.228 124.409 313.339 124.409L288.153 124.445C288.561 126.172 289.33 127.792 290.459 129.303C291.588 130.814 292.957 132.038 294.566 132.974C296.2 133.909 297.977 134.377 299.899 134.377C301.965 134.377 303.815 133.873 305.448 132.866C307.081 131.858 308.355 130.694 309.267 129.375C309.556 128.919 309.988 128.535 310.565 128.223C311.165 127.912 311.73 127.756 312.258 127.756C313.243 127.756 314.084 128.115 314.78 128.835C315.501 129.555 315.861 130.407 315.861 131.39C315.861 132.158 315.645 132.842 315.213 133.441C313.723 135.624 311.67 137.52 309.051 139.127C306.457 140.71 303.442 141.502 300.007 141.502C297.245 141.502 294.674 140.962 292.296 139.883C289.942 138.803 287.888 137.328 286.135 135.457C284.381 133.585 283.012 131.438 282.027 129.015C281.066 126.568 280.586 123.989 280.586 121.278C280.586 118.663 281.066 116.18 282.027 113.829C282.988 111.454 284.321 109.343 286.027 107.496C287.756 105.648 289.762 104.197 292.044 103.141C294.326 102.062 296.776 101.522 299.395 101.522ZM309.628 117.212C309.171 114.861 307.994 112.857 306.097 111.202C304.199 109.547 301.965 108.719 299.395 108.719C296.776 108.719 294.458 109.571 292.44 111.274C290.447 112.977 289.101 114.969 288.405 117.248L309.628 117.212Z" fill="black"/>
<path d="M341.66 101.234C343.438 101.234 345.167 101.594 346.849 102.314C348.554 103.009 350.068 103.897 351.389 104.977C352.734 106.032 353.731 107.124 354.38 108.251L354.776 104.797C354.776 103.813 355.064 102.973 355.641 102.278C356.217 101.558 356.998 101.198 357.983 101.198C358.968 101.198 359.808 101.558 360.505 102.278C361.226 102.973 361.586 103.813 361.586 104.797V104.869L361.514 138.191C361.514 139.175 361.154 140.027 360.433 140.746C359.736 141.442 358.896 141.79 357.911 141.79C356.926 141.79 356.145 141.442 355.569 140.746C354.992 140.027 354.704 139.175 354.704 138.191L354.307 135.313C353.058 137.448 351.233 139.043 348.831 140.099C346.428 141.13 344.014 141.646 341.588 141.646C338.874 141.646 336.327 141.118 333.949 140.063C331.571 138.983 329.481 137.508 327.68 135.636C325.878 133.765 324.461 131.618 323.428 129.195C322.419 126.772 321.915 124.217 321.915 121.53C321.915 118.867 322.407 116.324 323.392 113.901C324.401 111.454 325.794 109.283 327.572 107.388C329.373 105.468 331.463 103.969 333.841 102.889C336.243 101.786 338.85 101.234 341.66 101.234ZM354.091 121.458C354.091 119.107 353.539 116.948 352.434 114.981C351.353 113.013 349.876 111.43 348.002 110.23C346.128 109.031 343.99 108.431 341.588 108.431C339.234 108.431 337.108 109.031 335.21 110.23C333.313 111.43 331.811 113.025 330.706 115.017C329.602 116.984 329.049 119.119 329.049 121.422C329.049 123.749 329.613 125.908 330.742 127.9C331.872 129.867 333.385 131.45 335.283 132.65C337.204 133.849 339.318 134.449 341.624 134.449C343.93 134.449 346.02 133.849 347.894 132.65C349.791 131.45 351.293 129.867 352.398 127.9C353.527 125.908 354.091 123.761 354.091 121.458Z" fill="black"/>
<path d="M392.682 105.948C392.682 107.867 391.757 108.935 389.907 109.151C389.234 109.223 388.382 109.007 387.349 108.503C386.316 107.975 385.271 107.711 384.214 107.711C382.124 107.711 380.467 108.251 379.242 109.331C378.017 110.386 377.14 111.814 376.611 113.613C376.083 115.412 375.819 117.428 375.819 119.659V138.227C375.819 139.283 375.494 140.123 374.846 140.746C374.221 141.37 373.344 141.682 372.215 141.682C371.11 141.682 370.234 141.37 369.585 140.746C368.936 140.123 368.612 139.271 368.612 138.191V105.049C368.612 103.969 368.876 103.081 369.405 102.386C369.957 101.69 370.702 101.342 371.639 101.342C372.191 101.342 372.828 101.582 373.549 102.062C374.293 102.518 374.81 103.309 375.098 104.437L375.458 107.028C375.771 106.356 376.371 105.576 377.26 104.689C378.149 103.801 379.206 103.033 380.431 102.386C381.656 101.714 382.929 101.378 384.25 101.378C386.7 101.378 388.718 101.666 390.303 102.242C391.889 102.793 392.682 104.029 392.682 105.948Z" fill="black"/>
<path d="M402.59 94.9725C402.59 93.9889 402.939 93.1492 403.635 92.4535C404.332 91.7338 405.185 91.3739 406.194 91.3739C407.178 91.3739 408.019 91.7338 408.716 92.4535C409.436 93.1492 409.797 93.9889 409.797 94.9725V102.134H414.625C415.562 102.134 416.367 102.47 417.039 103.141C417.712 103.813 418.048 104.617 418.048 105.552C418.048 106.488 417.712 107.292 417.039 107.963C416.367 108.635 415.562 108.971 414.625 108.971H409.761L409.725 131.246V131.318C409.725 132.494 409.857 133.309 410.121 133.765C410.385 134.197 410.926 134.413 411.743 134.413C412.775 134.413 413.688 134.137 414.481 133.585C414.769 133.393 415.118 133.225 415.526 133.081C415.934 132.914 416.331 132.83 416.715 132.83C417.7 132.83 418.541 133.177 419.237 133.873C419.958 134.569 420.318 135.409 420.318 136.392C420.318 137.568 419.838 138.515 418.877 139.235C417.964 139.931 416.919 140.507 415.742 140.962C414.565 141.418 413.304 141.646 411.959 141.646C408.932 141.646 406.602 140.722 404.969 138.875C403.335 137.004 402.518 134.677 402.518 131.894V131.57L402.554 109.007H397.906C396.969 109.007 396.165 108.671 395.492 107.999C394.819 107.328 394.483 106.524 394.483 105.588C394.483 104.653 394.819 103.849 395.492 103.177C396.165 102.506 396.969 102.17 397.906 102.17H402.59V94.9725Z" fill="black"/>
<path d="M39.6823 79.4999C9.99964 79.4999 9.99964 50.5415 9.99964 50.5415C9.99964 39.7892 14.1566 29.4772 21.556 21.8742C28.9553 14.2711 38.9911 9.99981 49.4554 9.99981C59.9197 9.99981 69.9554 14.2712 77.3548 21.8742C84.7542 29.4772 88.9111 39.7892 88.9111 50.5415L88.9111 102.667C88.9111 109.544 86.7393 115.336 79.8616 116.784" stroke="url(#paint0_linear_576_1234)" stroke-width="18.0872" stroke-linecap="round"/>
<path d="M88.9111 50.5415L88.9111 76.604L88.9111 102.667" stroke="url(#paint1_linear_576_1234)" stroke-opacity="0.35" stroke-width="18.0872" stroke-linecap="round"/>
<path d="M92.5323 79.5005L40.4072 79.5005" stroke="url(#paint2_linear_576_1234)" stroke-width="18.0872" stroke-linecap="round"/>
<path d="M9.99978 50.5422C9.99978 50.5422 9.99977 79.5005 39.6824 79.5005L73.708 79.5005" stroke="url(#paint3_linear_576_1234)" stroke-opacity="0.35" stroke-width="18.0872" stroke-linecap="round"/>
<path d="M90.3579 79.5005C120.041 79.5005 120.041 108.459 120.041 108.459C120.041 119.211 115.884 129.523 108.484 137.126C101.085 144.729 91.0492 149.001 80.5849 149.001C70.1205 149.001 60.0848 144.729 52.6854 137.126C45.286 129.523 41.1291 119.211 41.1291 108.459L41.1291 56.3339C40.8878 49.5769 44.0249 42.7234 51.2645 40.4067" stroke="url(#paint4_linear_576_1234)" stroke-width="18.0872" stroke-linecap="round"/>
<defs>
<linearGradient id="paint0_linear_576_1234" x1="88.9111" y1="104.476" x2="28.4606" y2="20.8592" gradientUnits="userSpaceOnUse">
<stop stop-color="#5580E9"/>
<stop offset="1" stop-color="#8860D0"/>
</linearGradient>
<linearGradient id="paint1_linear_576_1234" x1="88.9111" y1="93.6169" x2="88.9111" y2="64.2967" gradientUnits="userSpaceOnUse">
<stop stop-opacity="0"/>
<stop offset="0.479167"/>
<stop offset="1" stop-opacity="0"/>
</linearGradient>
<linearGradient id="paint2_linear_576_1234" x1="11.4489" y1="40.0447" x2="133.074" y2="40.0448" gradientUnits="userSpaceOnUse">
<stop stop-color="#6E71DD"/>
<stop offset="1" stop-color="#6C72DF"/>
</linearGradient>
<linearGradient id="paint3_linear_576_1234" x1="58.8669" y1="79.5005" x2="22.669" y2="79.5005" gradientUnits="userSpaceOnUse">
<stop stop-opacity="0"/>
<stop offset="0.484375"/>
<stop offset="1" stop-opacity="0"/>
</linearGradient>
<linearGradient id="paint4_linear_576_1234" x1="41.1291" y1="56.3338" x2="102.666" y2="142.485" gradientUnits="userSpaceOnUse">
<stop stop-color="#5580E9"/>
<stop offset="1" stop-color="#8860D0"/>
</linearGradient>
</defs>
</svg>
