<svg width="438" height="438" viewBox="0 0 438 438" fill="none" xmlns="http://www.w3.org/2000/svg">
<circle cx="219" cy="219" r="219" fill="#F5F5F5"/>
<path d="M85.6362 272.854C85.6362 277.223 82.0945 280.767 77.7247 280.767C73.3549 280.767 69.8139 277.223 69.8139 272.854C69.8139 268.484 73.3549 264.942 77.7247 264.942C82.0945 264.942 85.6362 268.484 85.6362 272.854Z" fill="white"/>
<path d="M107.273 272.854C107.273 277.223 103.732 280.767 99.3619 280.767C94.9929 280.767 91.4511 277.223 91.4511 272.854C91.4511 268.484 94.9929 264.942 99.3619 264.942C103.732 264.942 107.273 268.484 107.273 272.854Z" fill="white"/>
<path d="M128.912 272.854C128.912 277.223 125.37 280.767 121.001 280.767C116.632 280.767 113.09 277.223 113.09 272.854C113.09 268.484 116.632 264.942 121.001 264.942C125.37 264.942 128.912 268.484 128.912 272.854Z" fill="white"/>
<path d="M85.6362 295.694C85.6362 300.063 82.0945 303.606 77.7247 303.606C73.3549 303.606 69.8139 300.063 69.8139 295.694C69.8139 291.324 73.3549 287.782 77.7247 287.782C82.0945 287.782 85.6362 291.324 85.6362 295.694Z" fill="white"/>
<path d="M107.273 295.693C107.273 300.062 103.732 303.605 99.3619 303.605C94.9929 303.605 91.4511 300.062 91.4511 295.693C91.4511 291.323 94.9929 287.78 99.3619 287.78C103.732 287.78 107.273 291.323 107.273 295.693Z" fill="white"/>
<path d="M128.912 295.694C128.912 300.063 125.37 303.606 121.001 303.606C116.632 303.606 113.09 300.063 113.09 295.694C113.09 291.324 116.632 287.781 121.001 287.781C125.37 287.781 128.912 291.324 128.912 295.694Z" fill="white"/>
<path d="M181.802 108.572C181.802 112.941 178.26 116.483 173.891 116.483C169.522 116.483 165.979 112.941 165.979 108.572C165.979 104.202 169.522 100.66 173.891 100.66C178.26 100.66 181.802 104.202 181.802 108.572Z" fill="white"/>
<path d="M202.963 324.824C203.99 317.681 210.618 311.894 217.755 311.894C218.729 311.894 219.654 312.003 220.537 312.207C226.137 313.492 229.718 318.653 228.822 324.824C228.402 327.75 227.044 330.449 225.098 332.611C222.929 335.02 220.033 336.775 216.879 337.442C215.947 337.646 214.992 337.754 214.031 337.754C209.813 337.754 206.358 335.735 204.453 332.611C203.119 330.449 202.543 327.75 202.963 324.824ZM257.23 368.697C245.148 366.69 236.292 356.116 236.292 343.99C236.292 342.188 236.489 340.349 236.898 338.499L238.166 332.611L243.723 306.812H185.515L179.939 332.611L177.602 343.42C174.118 359.095 186.044 373.96 202.098 373.96H274.673V369.04C273.249 369.04 258.582 368.925 257.23 368.697Z" fill="#C5C8D8"/>
<path d="M208.828 324.824C209.718 318.642 214.795 313.481 220.773 312.207C221.705 312.003 222.66 311.894 223.621 311.894C230.765 311.894 235.722 317.681 234.689 324.824C234.268 327.75 232.909 330.449 230.957 332.611C228.151 335.735 224.113 337.754 219.896 337.754C218.922 337.754 217.997 337.646 217.114 337.442C214.17 336.769 211.779 335.014 210.319 332.611C208.984 330.449 208.408 327.75 208.828 324.824ZM260.235 363.302C258.962 362.297 257.791 361.168 256.738 359.937C255.309 358.272 254.095 356.416 253.14 354.427C252.851 353.82 252.581 353.195 252.341 352.565C251.746 351.026 251.301 349.423 251.03 347.764C250.508 344.681 250.563 341.437 251.29 338.157L252.485 332.611L258.036 306.812H191.272L185.685 332.611L183.078 344.657C182.843 345.697 182.705 346.736 182.644 347.764C182.536 349.398 182.644 351.008 182.933 352.565C183.047 353.195 183.197 353.814 183.378 354.427C183.942 356.398 184.82 358.254 185.949 359.937C186.772 361.162 187.728 362.292 188.797 363.302C192.3 366.625 197.04 368.697 202.364 368.697H275.791C269.849 368.697 264.471 366.66 260.235 363.302Z" fill="white"/>
<path d="M257.749 306.812L253.306 327.47H228.128C228.421 326.611 228.637 325.728 228.771 324.818C229.671 318.65 226.087 313.49 220.484 312.205C214.507 313.481 209.43 318.642 208.546 324.818C208.412 325.728 208.379 326.611 208.429 327.47H181.002L185.462 306.812H257.749Z" fill="#C5C8D8"/>
<path d="M337.521 121.692H78.4593C70.473 121.692 64 128.166 64 136.152V302.338C64 310.324 70.473 316.797 78.4593 316.797H337.521C345.507 316.797 351.98 310.324 351.98 302.338V136.152C351.98 128.166 345.507 121.692 337.521 121.692Z" fill="#C5C8D8"/>
<path d="M359.191 135.313V303.171C359.191 310.692 353.091 316.791 345.569 316.791H84.8319C77.3101 316.791 71.2104 310.692 71.2104 303.171V135.313C71.2104 127.784 77.3101 121.692 84.8319 121.692H345.569C352.241 121.692 357.792 126.485 358.959 132.824C359.113 133.627 359.191 134.463 359.191 135.313Z" fill="white"/>
<path d="M339.295 130.908H92.5388C86.5147 130.908 81.6304 135.792 81.6304 141.816V296.411C81.6304 302.436 86.5147 307.32 92.5388 307.32H339.295C345.32 307.32 350.203 302.436 350.203 296.411V141.816C350.203 135.792 345.32 130.908 339.295 130.908Z" fill="#C5C8D8"/>
<path d="M333.719 135.315H92.5388C86.5147 135.315 81.6304 140.199 81.6304 146.224V296.425C81.6304 302.448 86.5147 307.334 92.5388 307.334H333.719C339.744 307.334 344.627 302.448 344.627 296.425V146.224C344.627 140.199 339.744 135.315 333.719 135.315Z" fill="#F9F8F6"/>
<path d="M344.625 145.589V147.281H81.6304V145.589C81.6304 139.915 86.2299 135.315 91.9036 135.315H334.351C340.026 135.315 344.625 139.915 344.625 145.589Z" fill="#D5D7E3"/>
<path d="M95.2539 141.297C95.2539 142.862 93.9844 144.131 92.4187 144.131C90.853 144.131 89.5835 142.862 89.5835 141.297C89.5835 139.731 90.853 138.461 92.4187 138.461C93.9844 138.461 95.2539 139.731 95.2539 141.297Z" fill="white"/>
<path d="M105.672 141.297C105.672 142.862 104.402 144.131 102.837 144.131C101.271 144.131 100.001 142.862 100.001 141.297C100.001 139.731 101.271 138.461 102.837 138.461C104.402 138.461 105.672 139.731 105.672 141.297Z" fill="white"/>
<path d="M115.288 141.296C115.288 142.861 114.018 144.13 112.452 144.13C110.887 144.13 109.617 142.861 109.617 141.296C109.617 139.73 110.887 138.46 112.452 138.46C114.018 138.46 115.288 139.73 115.288 141.296Z" fill="white"/>
<g opacity="0.8">
<path d="M372.573 87.3394V184.634C372.573 189.782 368.398 193.956 363.25 193.956H217.571C212.422 193.956 208.248 189.782 208.248 184.634V87.3394C208.248 82.1908 212.422 78.0164 217.571 78.0164H363.25C368.398 78.0164 372.573 82.1908 372.573 87.3394Z" fill="white"/>
</g>
<path d="M220.27 86.0305V194.042" stroke="#F9F8F6" stroke-width="0.000780795" stroke-miterlimit="10"/>
<path d="M247.515 86.03V194.041" stroke="#F9F8F6" stroke-width="0.000780795" stroke-miterlimit="10"/>
<path d="M273.961 86.0295V194.041" stroke="#F9F8F6" stroke-width="0.000780795" stroke-miterlimit="10"/>
<path d="M301.209 86.0305V194.042" stroke="#F9F8F6" stroke-width="0.000780795" stroke-miterlimit="10"/>
<path d="M328.455 86.0303V194.041" stroke="#F9F8F6" stroke-width="0.000780795" stroke-miterlimit="10"/>
<path d="M354.902 86.031V194.042" stroke="#F9F8F6" stroke-width="0.000780795" stroke-miterlimit="10"/>
<path d="M208.248 182.998H372.571" stroke="#F9F8F6" stroke-width="0.000780795" stroke-miterlimit="10"/>
<path d="M208.248 155.751H372.571" stroke="#F9F8F6" stroke-width="0.000780795" stroke-miterlimit="10"/>
<path d="M208.248 128.904H372.571" stroke="#F9F8F6" stroke-width="0.000780795" stroke-miterlimit="10"/>
<path d="M208.248 102.058H372.571" stroke="#F9F8F6" stroke-width="0.000780795" stroke-miterlimit="10"/>
<path d="M217.804 122.494H223.474V177.299H217.804V122.494Z" fill="#E2E3EC"/>
<path d="M226.62 116.082H232.29V177.157H226.62V116.082Z" fill="#E2E3EC"/>
<path d="M235.436 110.873H241.106V177.192H235.436V110.873Z" fill="#E2E3EC"/>
<path d="M244.25 106.867H249.919V177.48H244.25V106.867Z" fill="#E2E3EC"/>
<path d="M253.868 106.866H259.538V177.48H253.868V106.866Z" fill="#E2E3EC"/>
<path d="M262.681 110.473H268.351V177.504H262.681V110.473Z" fill="#E2E3EC"/>
<path d="M271.498 117.285H277.168V177.292H271.498V117.285Z" fill="#E2E3EC"/>
<path d="M280.312 124.897H285.982V177.35H280.312V124.897Z" fill="#E2E3EC"/>
<path d="M289.128 134.514H294.797V177.421H289.128V134.514Z" fill="#E2E3EC"/>
<path d="M298.744 142.128H304.414V177.161H298.744V142.128Z" fill="#E2E3EC"/>
<path d="M307.558 145.333H313.228V177.164H307.558V145.333Z" fill="#E2E3EC"/>
<path d="M316.375 146.936H322.045V177.473H316.375V146.936Z" fill="#E2E3EC"/>
<path d="M325.189 145.333H330.859V177.165H325.189V145.333Z" fill="#E2E3EC"/>
<path d="M334.006 142.127H339.676V177.16H334.006V142.127Z" fill="#E2E3EC"/>
<path d="M343.621 136.918H349.291V177.448H343.621V136.918Z" fill="#E2E3EC"/>
<path d="M352.438 128.904H358.107V177.274H352.438V128.904Z" fill="#E2E3EC"/>
<path d="M216.261 117.645C241.503 96.7098 259.341 92.6264 293.934 128.155C326.842 161.952 353.816 126.308 359.802 112.391" stroke="#FFD47A" stroke-width="0.00156159" stroke-miterlimit="10"/>
<path d="M372.573 87.3394V88.4989H208.248V87.3394C208.248 82.1908 212.422 78.0164 217.571 78.0164H363.25C368.398 78.0164 372.573 82.1908 372.573 87.3394Z" fill="#D5D7E3"/>
<path d="M223.474 83.1966C223.474 84.7623 222.205 86.031 220.64 86.031C219.074 86.031 217.804 84.7623 217.804 83.1966C217.804 81.6309 219.074 80.3614 220.64 80.3614C222.205 80.3614 223.474 81.6309 223.474 83.1966Z" fill="#EE6C60"/>
<path d="M233.092 83.1964C233.092 84.7621 231.822 86.0308 230.257 86.0308C228.692 86.0308 227.421 84.7621 227.421 83.1964C227.421 81.6306 228.692 80.3611 230.257 80.3611C231.822 80.3611 233.092 81.6306 233.092 83.1964Z" fill="#F6BF50"/>
<path d="M243.51 83.1964C243.51 84.7621 242.24 86.0308 240.675 86.0308C239.11 86.0308 237.839 84.7621 237.839 83.1964C237.839 81.6306 239.11 80.3611 240.675 80.3611C242.24 80.3611 243.51 81.6306 243.51 83.1964Z" fill="#64CA57"/>
<mask id="mask0_1_4752" style="mask-type:alpha" maskUnits="userSpaceOnUse" x="71" y="63" width="289" height="229">
<path d="M359.322 79.9167V276.075C359.322 284.865 353.219 291.992 345.694 291.992H84.8362C77.311 291.992 71.2085 284.865 71.2085 276.075V79.9167C71.2085 71.1182 77.311 63.9998 84.8362 63.9998H345.694C352.369 63.9998 357.922 69.6001 359.09 77.0082C359.244 77.947 359.322 78.9233 359.322 79.9167Z" fill="white"/>
</mask>
<g mask="url(#mask0_1_4752)">
<path d="M240.304 188.607L248.533 201.215C258.938 206.452 263.758 195.584 270.41 193.963L259.849 176.697L240.304 188.607Z" fill="#EFD3C2"/>
<path d="M269.419 184.367L275.023 188.201C276.371 189.122 276.784 190.926 275.971 192.343C275.082 193.892 273.081 194.385 271.575 193.425L265.846 189.779C264.369 188.838 263.905 186.895 264.799 185.388C265.754 183.778 267.873 183.309 269.419 184.367Z" fill="#EFD3C2"/>
<path d="M283.436 186.174C282.893 187.089 281.804 187.558 280.721 187.296L272.481 185.32L263.51 192.936L257.932 186.015L258.323 185.819L272.115 178.99L276.692 180.624L282.154 182.57C283.452 183.035 284.125 184.474 283.63 185.769C283.58 185.907 283.51 186.05 283.436 186.174Z" fill="#EFD3C2"/>
<path d="M285.678 174.661C285.798 173.087 284.538 171.751 282.96 171.779L269.355 172.024L252.324 179.82L259.713 188.254L273.554 178.316L283.334 177.117C284.601 176.961 285.582 175.934 285.678 174.661Z" fill="#EFD3C2"/>
<path d="M244.31 188.806L255.15 175.245L265.581 173.382L264.068 179.559L260.231 181.516C260.231 181.516 258.862 195.653 244.31 188.806Z" fill="#E2AF96"/>
<path d="M265.054 173.382L269.491 177.635C270.455 178.559 270.5 180.086 269.59 181.064C268.783 181.934 267.467 182.098 266.471 181.453L263.542 179.559L265.054 173.382Z" fill="#E2AF96"/>
<path d="M275.47 197.855C274.896 198.814 273.836 199.435 272.637 199.392L265.847 199.097C264.102 199.018 262.722 197.564 262.742 195.815C262.75 195.316 262.881 194.842 263.089 194.416C263.125 194.33 263.166 194.263 263.206 194.195C263.24 194.139 263.28 194.071 263.325 194.021C263.956 193.097 265.048 192.525 266.242 192.626L273.009 193.138C273.97 193.222 274.815 193.729 275.329 194.48C275.404 194.586 275.472 194.703 275.539 194.82C275.779 195.239 275.913 195.732 275.909 196.25C275.905 196.846 275.746 197.393 275.47 197.855Z" fill="#EFD3C2"/>
<path d="M275.545 194.481C275.114 194.896 274.555 195.19 273.911 195.294L267.22 196.421C265.548 196.707 263.954 195.661 263.542 194.021C264.172 193.096 265.264 192.525 266.458 192.627L273.226 193.138C274.186 193.223 275.031 193.728 275.545 194.481Z" fill="#E2AF96"/>
<path d="M266.352 188.743L273.081 187.835C274.7 187.616 276.215 188.679 276.56 190.276C276.937 192.02 275.782 193.728 274.021 194.025L267.326 195.155C265.598 195.446 263.952 194.314 263.606 192.596C263.236 190.76 264.495 188.994 266.352 188.743Z" fill="#EFD3C2"/>
<path d="M240.301 188.872L253.041 172.819L265.346 170.577L263.587 177.875L259.065 180.201C259.065 180.201 257.509 196.894 240.301 188.872Z" fill="#EFD3C2"/>
<path d="M265.301 170.577L270.556 175.579C271.698 176.666 271.757 178.468 270.688 179.627H270.687C269.738 180.657 268.187 180.855 267.008 180.1L263.542 177.876L265.301 170.577Z" fill="#EFD3C2"/>
<path d="M276.175 192.552C275.723 193.308 274.956 193.874 274.019 194.033L267.317 195.154C265.591 195.453 263.945 194.315 263.602 192.61C263.459 191.851 263.573 191.123 263.903 190.494C263.925 190.431 263.966 190.363 264 190.307C264.492 189.483 265.32 188.892 266.34 188.751L273.073 187.834C273.87 187.729 274.651 187.935 275.266 188.365C275.911 188.796 276.379 189.474 276.553 190.282C276.728 191.091 276.573 191.887 276.175 192.552Z" fill="#EFD3C2"/>
<path d="M240.304 188.607L229.855 201.154L241.384 216.234L248.532 201.215L240.304 188.607Z" fill="#EFD3C2"/>
<path d="M205.365 238.287L187.824 251.692L181.473 256.555C174.51 247.875 168.488 240.798 163.398 233.47C155.299 221.825 149.528 209.59 145.994 189.448C144.483 180.825 149.846 172.464 158.332 170.294C161.854 169.397 165.444 169.692 168.636 170.952C172.113 172.328 175.111 174.827 177.054 178.235L197.469 221.53L201.65 230.391L205.365 238.287Z" fill="#E69771"/>
<path d="M248.959 203.248C242.745 221.834 232.054 237.715 220.66 248.327C210.594 257.688 199.984 262.948 191.417 262.345C187.408 262.061 183.852 260.493 181 257.473L184.34 245.407L185.544 241.056L189.35 227.344L235.469 192.615L248.959 203.248Z" fill="#E69771"/>
<path d="M221.104 248.45C211.038 257.811 200.428 263.071 191.862 262.468C187.852 262.184 184.296 260.616 181.445 257.596C174.481 248.915 168.459 241.837 163.37 234.511L165.699 199.827C165.699 199.827 175.191 225.563 185.989 241.179C193.648 252.256 202.532 256.422 221.104 248.45Z" fill="#DA755D"/>
<path d="M163.654 168.828L165.356 167.169C169.16 163.463 168.666 157.214 164.328 154.152L157.515 149.341L149.747 163.561L163.654 168.828Z" fill="white"/>
<path d="M133.302 314.235C133.608 314.275 133.899 314.282 134.206 314.288L176.882 315.289L173.289 275.384L172.467 263.045L119.796 258.328L106.629 261.853L103.557 273.524C98.2689 293.536 112.8 313.222 133.302 314.235Z" fill="#3D2425"/>
<path d="M245.954 308.018L242.892 421.924L221.463 420.309C225.4 396.476 203.766 317.773 221.643 285.083C234.966 283.947 246.313 294.652 245.954 308.018Z" fill="white"/>
<path d="M173.788 275.558L180.356 315.533L211.377 316.26C211.377 316.26 207.387 354.693 210.389 397.77C210.714 402.516 211.135 407.33 211.653 412.163L256.627 408.962L257.996 398.886L250.155 398.701L249.046 301.098C248.904 287.832 238.271 277.07 225.016 276.759L173.788 275.558Z" fill="#3D2425"/>
<path d="M186.989 308.679L164.347 420.352L142.417 418.576C146.355 394.743 143.75 311.018 166.993 281.897C180.313 283.073 189.646 295.574 186.989 308.679Z" fill="white"/>
<path d="M127.308 274.356L132.29 304.718L133.877 314.298L133.876 314.331L153.533 314.791C153.533 314.791 142.846 358.777 139.984 396.007C139.609 400.948 139.367 405.778 139.308 410.354L184.266 407.153L185.651 397.077L177.81 396.894L197.286 300.887C199.901 287.977 190.207 275.83 177.033 275.521L127.308 274.356Z" fill="#3D2425"/>
<path d="M133.302 314.235L133.301 314.268L152.958 314.729C152.958 314.729 142.271 358.714 139.409 395.944L146.134 396.102L161.46 314.928L163.233 305.572L134.41 304.896C133.489 304.875 132.585 304.789 131.715 304.655C119.836 302.857 111.716 291.182 114.65 279.136L119.796 258.328L106.629 261.853L103.557 273.524C98.2689 293.536 112.8 313.222 133.302 314.235Z" fill="#301516"/>
<path d="M173.248 142.584L170.188 146.948L160.804 160.36L155.237 168.301L134.52 162.72L154.337 104.062L173.248 142.584Z" fill="#EFD3C2"/>
<path d="M148.267 146.62C148.267 146.62 165.798 153.119 171.832 154.643C178.325 156.283 185.328 152.253 186.731 145.564C188.677 136.448 190.078 127.291 187.286 116.922C185.636 110.799 182.009 105.646 177.194 102.027C175.037 100.388 172.626 99.071 170.045 98.1323L170.018 98.12L168.551 97.635L168.404 97.5783C167.668 97.3584 166.925 97.1836 166.17 97.0343C164.377 96.6601 162.535 96.4525 160.655 96.4492C158.859 96.4402 157.121 96.7307 155.512 97.2764C148.753 99.5692 144.148 106.384 145.051 113.956L145.846 120.455L148.267 146.62Z" fill="#EFD3C2"/>
<path d="M170.044 147.179L161.589 159.262C146.956 152.267 152.301 135.717 152.301 135.717L170.044 147.179Z" fill="#E2AF96"/>
<path d="M178.301 117.77C180.279 122.733 182.897 125.806 185.293 128.531C189.028 132.778 185.146 139.333 179.617 138.14L178.135 137.821L178.301 117.77Z" fill="#EFD3C2"/>
<path d="M157.81 114.04C167.838 110.375 164.653 102.731 164.653 102.731C164.653 102.731 167.904 109.192 176.302 105.357C176.302 105.357 178.141 110.89 185.589 110.824C193.036 110.758 197.915 94.1347 180.207 94.4523C170.355 82.8586 159.505 87.0028 156.397 94.5048C140.089 91.8017 137.285 107.131 142.848 109.582C128.51 111.446 133.231 134.85 152.822 122.257L157.81 114.04Z" fill="#3D2425"/>
<path d="M156.83 128.735C145.04 99.5807 121.84 130.859 151.137 136.605L156.83 128.735Z" fill="#EFD3C2"/>
<path d="M172.51 263.316L121.271 260.799L119.788 260.943L119.06 260.872L106.681 262.135C106.681 262.135 107.085 244.913 106.037 219.675C105.588 208.421 103.451 196.219 106.397 183.833C114.179 151.265 139.979 149.839 138.412 151.317L166.1 170.568C167.238 174.479 171.014 182.158 172.801 191.038C172.946 191.7 173.072 192.399 173.181 193.078C173.536 195.403 173.766 197.779 173.745 200.201C173.746 200.878 173.73 201.59 173.642 202.301C173.6 203.333 173.485 204.4 173.319 205.429C172.32 211.571 169.468 217.67 163.481 223.018L163.578 223.43L163.594 223.52L172.51 263.316Z" fill="#E69771"/>
<path d="M153.752 161.761L158.167 178.532L163.09 168.254L153.752 161.761Z" fill="white"/>
<path d="M173.125 263.411L107.288 262.219C106.843 246.974 115.763 201.043 118.998 185.402L151.298 214.01L170.571 216.844L173.125 263.411Z" fill="#E69771"/>
<path d="M116.476 159.976C93.3541 170.828 91.139 180.788 84.3804 237.104L113.628 234.338C113.628 234.338 138.996 194.918 141.011 175.611C141.418 171.708 140.775 148.57 116.476 159.976Z" fill="#E69771"/>
<path d="M138.254 186.655L132.15 262.709L106.85 262.252L110.479 177.789L138.254 186.655Z" fill="#DA755D"/>
<path d="M157.258 114.208L157.935 130.891L154.901 130.403L150.761 119.729L157.258 114.208Z" fill="#3D2425"/>
<path d="M172.452 126.158C172.304 128.56 171.296 130.453 170.2 130.385C169.105 130.318 168.337 128.315 168.486 125.913C168.633 123.511 169.642 121.619 170.737 121.685C171.832 121.753 172.6 123.755 172.452 126.158Z" fill="#1B1B1B"/>
<path d="M167.877 113.003C172.746 111.37 173.87 113.89 170.333 115.702C166.527 117.65 161.821 115.034 167.877 113.003Z" fill="#3D2425"/>
<path d="M186.878 124.955C186.731 127.357 185.722 129.25 184.626 129.183C183.531 129.115 182.762 127.113 182.911 124.71C183.059 122.309 184.067 120.416 185.163 120.483C186.258 120.55 187.026 122.553 186.878 124.955Z" fill="#1B1B1B"/>
<path d="M184.336 114.13C189.451 113.677 189.957 116.39 186.095 117.327C181.94 118.334 177.973 114.694 184.336 114.13Z" fill="#3D2425"/>
<path d="M146.54 396.166L163.651 305.643L134.822 304.968C121.519 304.655 111.91 292.127 115.059 279.197L117.869 267.661" stroke="#4C3536" stroke-width="0.000585596" stroke-miterlimit="10"/>
<path d="M105.67 267.545L172.201 269.104" stroke="#4C3536" stroke-width="0.000585596" stroke-miterlimit="10"/>
<path d="M115.286 277.45L129.964 275.806L131.797 268.746" stroke="#4C3536" stroke-width="0.000585596" stroke-miterlimit="10"/>
<path d="M193.787 315.721L196.178 304.717C199.304 290.329 188.544 276.656 173.825 276.31L141.733 275.559" stroke="#4C3536" stroke-width="0.000585596" stroke-miterlimit="10"/>
<path d="M156.825 129.004C156.825 129.004 162.32 136.527 168.511 138.263C176.147 140.404 183.61 134.523 188.958 135.252C190.429 140.809 189.439 155.445 175.188 156.466C165.182 157.182 154.274 147.085 151.768 140.897C149.263 134.709 151.468 131.479 151.011 119.689L156.825 129.004Z" fill="#3D2425"/>
<path d="M177.159 116.884C179.136 121.847 181.755 124.92 184.151 127.645C187.887 131.891 184.003 138.447 178.475 137.254L176.994 136.935" fill="#EFD3C2"/>
<path d="M177.159 116.884C179.136 121.847 181.755 124.92 184.151 127.645C187.887 131.891 184.003 138.447 178.475 137.254L176.994 136.935" stroke="#E2AF96" stroke-width="0.000780795" stroke-miterlimit="10"/>
<path d="M155.449 168.39L157.119 162.215C158.797 156.009 155.732 149.5 149.878 146.839L140.391 142.528L137.726 150.93L155.449 168.39Z" fill="white"/>
<path d="M143.334 165.844C149.688 157.342 176.98 164.757 176.98 164.757L179.927 168.292L143.334 165.844Z" fill="white"/>
<path d="M141.669 166.12C143.774 157.602 120.386 145.734 120.386 145.734L113.684 147.492L141.669 166.12Z" fill="white"/>
<path d="M148.598 165.909L180.641 167.51L182.066 168.881L147.342 169.775L148.598 165.909Z" fill="#558657"/>
<path d="M148.72 166.064L138.956 164.059L137.965 165.997L148.619 168.03L148.72 166.064Z" fill="#558657"/>
<path d="M113.627 145.496L139.197 164.155L138.685 166.132L111.515 145.813L113.627 145.496Z" fill="#558657"/>
<path d="M148.057 167.618L181.656 168.63L168.008 221.697L133.757 219.405L148.057 167.618Z" fill="#659D67"/>
<path d="M124.692 219.262L133.563 219.769L142.726 187.608L143.831 183.732L144.777 180.386L145.94 176.303L148.507 167.306L138.958 165.504L136.681 174.096L135.433 178.775L134.762 181.3L133.465 186.196L124.692 219.262Z" fill="#558657"/>
<path d="M135.321 178.99L144.26 180.581L145.373 176.55L136.514 174.372L135.321 178.99Z" fill="#ECCA49"/>
<path d="M133.719 186.604L142.58 187.999L143.636 184.172L134.96 181.772L133.719 186.604Z" fill="#ECCA49"/>
<path d="M112.048 145.75L138.968 165.992L125.32 219.059L97.7487 197.536L112.048 145.75Z" fill="#659D67"/>
<path d="M120.094 197.616C125.114 194.775 124.849 201.319 132.081 196.832C138.341 192.948 144.238 191.511 147.07 192.534C162.241 198.018 158.858 221.212 158.858 221.212L121.592 219.023L120.094 197.616Z" fill="#558657"/>
<path d="M166.576 214.653L139.169 212.253L138.601 214.71L166.008 217.109L166.576 214.653Z" fill="#ECCA49"/>
<path d="M131.795 174.121L112.752 161.61L110.97 168.577L130.02 181.013L131.795 174.121Z" fill="#ECCA49"/>
<path d="M118.88 222.543L117.69 208.911L118.726 199.305C118.898 197.702 120.494 196.658 122.033 197.141C123.078 197.47 123.798 198.429 123.821 199.524L123.974 206.65L125.62 212.655L118.88 222.543Z" fill="#EFD3C2"/>
<path d="M119.294 222.448L123.45 211.848L153.795 221.713C148.059 228.071 138.356 229.283 132.123 232.679L129.264 234.188L119.294 222.448Z" fill="#EFD3C2"/>
<path d="M123.301 211.932L130.137 217.718L130.412 217.268L135.041 209.667L135.048 209.642L138.296 202.124L146.83 194.751C147.405 194.254 147.629 193.461 147.398 192.736C147.018 191.548 145.617 191.041 144.566 191.713L133.849 198.552L125.591 209.034L123.301 211.932Z" fill="#EFD3C2"/>
<path d="M128.911 215.264L130.384 216.995L134.747 222.117L136.637 219.794L140.683 214.798L140.908 214.524L141.699 213.549L147.011 205.69L152.905 196.967C153.357 196.298 153.352 195.419 152.892 194.755L152.828 194.661C152.128 193.652 150.684 193.526 149.822 194.401L141.957 202.376L135.755 208.662L135.022 209.369L131.558 212.717L128.911 215.264Z" fill="#EFD3C2"/>
<path d="M143.989 226.271L153.372 221.644L157.527 214.826C158.097 213.89 157.884 212.671 157.026 211.975C156.438 211.498 155.675 211.385 155.003 211.592C154.579 211.723 154.187 211.984 153.895 212.368L150.256 217.215L145.839 219.717L150.982 214.16L155.787 205.112C156.158 204.402 156.065 203.541 155.553 202.933C155.13 202.422 154.513 202.193 153.907 202.237C153.406 202.274 152.917 202.503 152.562 202.922L147.008 209.45L134.52 217.465L143.989 226.271Z" fill="#EFD3C2"/>
<path d="M152.898 202.921L147.342 209.447L151.319 214.156L156.12 205.109C156.495 204.403 156.403 203.541 155.889 202.93C155.109 202.002 153.683 201.998 152.898 202.921Z" fill="#E2AF96"/>
<path d="M152.604 194.661C151.904 193.652 150.46 193.526 149.598 194.401L141.733 202.376L146.787 205.689L152.681 196.967C153.133 196.298 153.128 195.419 152.668 194.755L152.604 194.661Z" fill="#E2AF96"/>
<path d="M133.719 198.552L138.165 202.123L146.699 194.751C147.275 194.254 147.498 193.461 147.267 192.736C146.888 191.548 145.486 191.042 144.436 191.712L133.719 198.552Z" fill="#E2AF96"/>
<path d="M150.548 217.169L153.664 221.598L157.819 214.779C158.39 213.844 158.175 212.625 157.318 211.929C156.73 211.452 155.967 211.339 155.295 211.546C154.871 211.678 154.479 211.938 154.187 212.322L150.548 217.169Z" fill="#E2AF96"/>
<path d="M84.1632 236.901C81.5668 267.771 118.17 271.845 128.806 234.006L118.835 222.267L84.1632 236.901Z" fill="#E69771"/>
<path d="M172.987 141.423L177.839 140.926C176.207 150.952 172.987 141.423 172.987 141.423Z" fill="white"/>
<path d="M119.294 222.266L91.1756 234.134" stroke="white" stroke-width="0.000390398" stroke-miterlimit="10"/>
<path d="M189.816 227.475L235.934 192.747" stroke="white" stroke-width="0.000390398" stroke-miterlimit="10"/>
<path d="M128.641 234.19C118.008 272.032 81.4045 267.953 83.9938 237.087L84.2934 234.633C89.2804 253.833 114.713 256.671 125.972 231.054L128.641 234.19Z" fill="#DA755D"/>
<path d="M107.033 260.666C124.875 255.018 129.139 234.133 129.139 234.133" stroke="#E69771" stroke-width="0.000390398" stroke-miterlimit="10"/>
</g>
<g opacity="0.8">
<g opacity="0.8">
<path opacity="0.8" d="M339.858 307.475H91.9742C86.2611 307.475 81.6304 302.844 81.6304 297.132V291.986H350.202V297.132C350.202 302.844 345.572 307.475 339.858 307.475Z" fill="#241816"/>
</g>
</g>
<path d="M95.8758 300.07L90.5434 303.469C90.1536 303.717 89.644 303.438 89.644 302.976V296.179C89.644 295.717 90.1536 295.437 90.5434 295.685L95.8758 299.084C96.2369 299.313 96.2369 299.84 95.8758 300.07Z" fill="#FFFFFD"/>
<path d="M102.466 299.6H341.796" stroke="#FFFFFD" stroke-width="0.00156159" stroke-miterlimit="10" stroke-linecap="round" stroke-linejoin="round"/>
<path d="M100.062 299.599H114.022" stroke="#D84F4C" stroke-width="0.00156159" stroke-miterlimit="10" stroke-linecap="round" stroke-linejoin="round"/>
<path d="M119.294 299.722C119.294 302.531 117.017 304.809 114.207 304.809C111.397 304.809 109.12 302.531 109.12 299.722C109.12 296.912 111.397 294.634 114.207 294.634C117.017 294.634 119.294 296.912 119.294 299.722Z" fill="#D84F4C"/>
<path d="M116.89 299.499C116.89 300.883 115.768 302.004 114.384 302.004C113 302.004 111.878 300.883 111.878 299.499C111.878 298.114 113 296.992 114.384 296.992C115.768 296.992 116.89 298.114 116.89 299.499Z" fill="#FFFFFD"/>
<path d="M365.214 202.231H268.314C263.467 202.231 259.538 206.161 259.538 211.007V255.695C259.538 260.542 263.467 264.471 268.314 264.471H365.214C370.061 264.471 373.99 260.542 373.99 255.695V211.007C373.99 206.161 370.061 202.231 365.214 202.231Z" fill="#D5D7E3"/>
<path d="M272.36 217.858H359.368" stroke="#CACDDC" stroke-width="0.000780795" stroke-miterlimit="10"/>
<path d="M272.36 222.667H359.368" stroke="#CACDDC" stroke-width="0.000780795" stroke-miterlimit="10"/>
<path d="M272.36 227.875H359.368" stroke="#CACDDC" stroke-width="0.000780795" stroke-miterlimit="10"/>
<path d="M272.36 232.683H359.368" stroke="#CACDDC" stroke-width="0.000780795" stroke-miterlimit="10"/>
<path d="M272.36 237.492H359.368" stroke="#CACDDC" stroke-width="0.000780795" stroke-miterlimit="10"/>
<path d="M272.36 242.3H359.368" stroke="#CACDDC" stroke-width="0.000780795" stroke-miterlimit="10"/>
<path d="M272.36 247.508H359.368" stroke="#CACDDC" stroke-width="0.000780795" stroke-miterlimit="10"/>
<path d="M272.359 252.317H359.368" stroke="#CACDDC" stroke-width="0.000780795" stroke-miterlimit="10"/>
<path d="M272.819 256.283C296.762 212.355 303.9 217.507 315.423 239.282C331.32 269.323 343.661 220.774 356.43 225.436L356.429 256.283L272.819 256.283Z" fill="#EBECF2"/>
<path d="M272.36 235.785C290.406 215.757 299.788 271.023 322.43 241.086C346.992 208.607 355.931 220.312 355.931 220.312" stroke="#E67C83" stroke-width="0.00156159" stroke-miterlimit="10"/>
<path d="M272.36 213.049V256.134H362.111" stroke="white" stroke-width="0.000780795" stroke-miterlimit="10"/>
<path d="M270.755 215.634L272.874 213.05L274.992 215.634" stroke="white" stroke-width="0.000780795" stroke-miterlimit="10"/>
<path d="M359.709 253.92L362.293 256.039L359.709 258.157" stroke="white" stroke-width="0.000780795" stroke-miterlimit="10"/>
<path d="M283.672 209.043H287.586V212.957H283.672V209.043Z" stroke="white" stroke-width="0.000780795" stroke-miterlimit="10"/>
<path d="M290.206 209.844H315.633V212.466H290.206V209.844Z" fill="#EBECF2"/>
<path d="M322.137 209.042H326.051V212.957H322.137V209.042Z" stroke="white" stroke-width="0.000780795" stroke-miterlimit="10"/>
<path d="M328.672 209.845H354.099V212.467H328.672V209.845Z" fill="#EBECF2"/>
</svg>
