<svg width="151" height="151" viewBox="0 0 151 151" fill="currentColor" xmlns="http://www.w3.org/2000/svg">
<path d="M147.45 67.0313L135.972 55.5381C134.008 53.5721 132.422 49.7158 132.422 46.9937V30.6612C132.422 24.0073 126.985 18.5631 120.339 18.5631H104.103C101.384 18.5631 97.5325 16.9752 95.569 15.0093L84.0901 3.51602C79.408 -1.17201 71.7051 -1.17201 67.0229 3.51602L55.393 15.0093C53.505 16.9752 49.6536 18.5631 46.8594 18.5631H30.6229C23.9772 18.5631 18.5399 24.0073 18.5399 30.6612V46.9181C18.5399 49.6402 16.954 53.4965 14.9905 55.4624L3.51162 66.9557C-1.17054 71.6437 -1.17054 79.3563 3.51162 84.0443L14.9905 95.5376C16.954 97.5035 18.5399 101.36 18.5399 104.082V120.339C18.5399 126.993 23.9772 132.437 30.6229 132.437H46.8594C49.5781 132.437 53.4295 134.025 55.393 135.991L66.8719 147.484C71.554 152.172 79.257 152.172 83.9391 147.484L95.418 135.991C97.3815 134.025 101.233 132.437 103.952 132.437H120.188C126.834 132.437 132.271 126.993 132.271 120.339V104.082C132.271 101.36 133.857 97.5035 135.821 95.5376L147.299 84.0443C152.208 79.4319 152.208 71.7193 147.45 67.0313ZM45.2735 52.8916C45.2735 48.7328 48.6718 45.3302 52.8254 45.3302C56.9789 45.3302 60.3773 48.7328 60.3773 52.8916C60.3773 57.0503 57.0544 60.4529 52.8254 60.4529C48.6718 60.4529 45.2735 57.0503 45.2735 52.8916ZM56.8279 102.267C55.6951 103.401 54.2602 103.931 52.8254 103.931C51.3905 103.931 49.9557 103.401 48.8229 102.267C47.7695 101.2 47.1788 99.76 47.1788 98.2596C47.1788 96.7592 47.7695 95.3193 48.8229 94.2521L94.1341 48.8841C96.3242 46.6913 99.9491 46.6913 102.139 48.8841C104.329 51.0769 104.329 54.7063 102.139 56.8991L56.8279 102.267ZM98.1366 105.821C93.9076 105.821 90.5093 102.418 90.5093 98.2596C90.5093 94.1009 93.9076 90.6983 98.0611 90.6983C102.215 90.6983 105.613 94.1009 105.613 98.2596C105.613 102.418 102.29 105.821 98.1366 105.821Z" fill="#F9F9F9"/>
</svg>
