<svg width="181" height="181" viewBox="0 0 181 181" fill="none" xmlns="http://www.w3.org/2000/svg">
<path d="M176.12 80.038L162.419 66.3367C160.075 63.993 158.182 59.3958 158.182 56.1508V36.6804C158.182 28.748 151.692 22.2579 143.76 22.2579H124.379C121.134 22.2579 116.537 20.365 114.193 18.0213L100.492 4.31995C94.9034 -1.26876 85.7091 -1.26876 80.1203 4.31995L66.2387 18.0213C63.9852 20.365 59.388 22.2579 56.0528 22.2579H36.6726C28.7402 22.2579 22.2501 28.748 22.2501 36.6804V56.0606C22.2501 59.3057 20.3572 63.9029 18.0135 66.2465L4.31214 79.9479C-1.27657 85.5366 -1.27657 94.7309 4.31214 100.32L18.0135 114.021C20.3572 116.365 22.2501 120.962 22.2501 124.207V143.587C22.2501 151.519 28.7402 158.01 36.6726 158.01H56.0528C59.2979 158.01 63.895 159.903 66.2387 162.246L79.9401 175.948C85.5288 181.536 94.7231 181.536 100.312 175.948L114.013 162.246C116.357 159.903 120.954 158.01 124.199 158.01H143.579C151.512 158.01 158.002 151.519 158.002 143.587V124.207C158.002 120.962 159.895 116.365 162.238 114.021L175.94 100.32C181.799 94.8211 181.799 85.6267 176.12 80.038ZM54.1599 63.1817C54.1599 58.224 58.2162 54.1677 63.1739 54.1677C68.1317 54.1677 72.188 58.224 72.188 63.1817C72.188 68.1395 68.2218 72.1958 63.1739 72.1958C58.2162 72.1958 54.1599 68.1395 54.1599 63.1817ZM67.9514 122.044C66.5993 123.396 64.8866 124.027 63.1739 124.027C61.4612 124.027 59.7486 123.396 58.3965 122.044C57.1392 120.771 56.4341 119.055 56.4341 117.266C56.4341 115.477 57.1392 113.761 58.3965 112.489L112.481 58.4043C115.095 55.7902 119.422 55.7902 122.036 58.4043C124.65 61.0184 124.65 65.3451 122.036 67.9592L67.9514 122.044ZM117.258 126.28C112.21 126.28 108.154 122.224 108.154 117.266C108.154 112.308 112.21 108.252 117.168 108.252C122.126 108.252 126.182 112.308 126.182 117.266C126.182 122.224 122.216 126.28 117.258 126.28Z" fill="black"/>
</svg>
