<svg width="16" height="16" viewBox="0 0 16 16" fill="none" xmlns="http://www.w3.org/2000/svg">
<path d="M6.25 13.5C6.25 13.7472 6.17669 13.9889 6.03934 14.1945C5.90199 14.4 5.70676 14.5602 5.47835 14.6548C5.24995 14.7495 4.99861 14.7742 4.75614 14.726C4.51366 14.6778 4.29093 14.5587 4.11612 14.3839C3.9413 14.2091 3.82225 13.9863 3.77402 13.7439C3.72579 13.5014 3.75054 13.2501 3.84515 13.0216C3.93976 12.7932 4.09998 12.598 4.30554 12.4607C4.5111 12.3233 4.75277 12.25 5 12.25C5.33102 12.2516 5.648 12.3839 5.88207 12.6179C6.11613 12.852 6.24836 13.169 6.25 13.5ZM11.5 12.25C11.2528 12.25 11.0111 12.3233 10.8055 12.4607C10.6 12.598 10.4398 12.7932 10.3452 13.0216C10.2505 13.2501 10.2258 13.5014 10.274 13.7439C10.3223 13.9863 10.4413 14.2091 10.6161 14.3839C10.7909 14.5587 11.0137 14.6778 11.2561 14.726C11.4986 14.7742 11.7499 14.7495 11.9784 14.6548C12.2068 14.5602 12.402 14.4 12.5393 14.1945C12.6767 13.9889 12.75 13.7472 12.75 13.5C12.7484 13.169 12.6161 12.852 12.3821 12.6179C12.148 12.3839 11.831 12.2516 11.5 12.25ZM14.5813 4.70625L13.0688 9.98125C12.9633 10.3461 12.7425 10.6669 12.4394 10.8956C12.1363 11.1244 11.7672 11.2487 11.3875 11.25H5.1125C4.73277 11.2487 4.36368 11.1244 4.06057 10.8956C3.75746 10.6669 3.53666 10.3461 3.43125 9.98125L1.925 4.71875C1.925 4.7125 1.91875 4.7 1.91875 4.69375L1.3625 2.75H0.75C0.551088 2.75 0.360322 2.67098 0.21967 2.53033C0.0790176 2.38968 0 2.19891 0 2C0 1.80109 0.0790176 1.61032 0.21967 1.46967C0.360322 1.32902 0.551088 1.25 0.75 1.25H1.55C1.82158 1.25206 2.08533 1.34121 2.30247 1.50434C2.5196 1.66748 2.67866 1.89598 2.75625 2.15625L3.20625 3.75H13.8563C13.9723 3.75066 14.0866 3.77801 14.1903 3.82991C14.2941 3.88182 14.3845 3.9569 14.4546 4.04934C14.5246 4.14179 14.5725 4.24911 14.5945 4.36302C14.6165 4.47693 14.6119 4.59437 14.5813 4.70625ZM12.8625 5.25H3.6375L4.86875 9.56875C4.88474 9.621 4.91702 9.66678 4.96088 9.69938C5.00473 9.73199 5.05785 9.74973 5.1125 9.75H11.3875C11.4421 9.74973 11.4953 9.73199 11.5391 9.69938C11.583 9.66678 11.6153 9.621 11.6313 9.56875L12.8625 5.25Z" fill="#5480E9"/>
</svg>
