<svg width="16" height="16" viewBox="0 0 16 16" fill="none" xmlns="http://www.w3.org/2000/svg">
<g clip-path="url(#clip0_545_277)">
<path d="M12.5 13.5C12.5 13.6978 12.4414 13.8911 12.3315 14.0556C12.2216 14.22 12.0654 14.3482 11.8827 14.4239C11.7 14.4996 11.4989 14.5194 11.3049 14.4808C11.1109 14.4422 10.9327 14.347 10.7929 14.2071C10.653 14.0673 10.5578 13.8891 10.5192 13.6951C10.4806 13.5011 10.5004 13.3 10.5761 13.1173C10.6518 12.9346 10.78 12.7784 10.9444 12.6685C11.1089 12.5586 11.3022 12.5 11.5 12.5C11.7652 12.5 12.0196 12.6054 12.2071 12.7929C12.3946 12.9804 12.5 13.2348 12.5 13.5ZM5 12.5C4.80222 12.5 4.60888 12.5586 4.44443 12.6685C4.27998 12.7784 4.15181 12.9346 4.07612 13.1173C4.00043 13.3 3.98063 13.5011 4.01921 13.6951C4.0578 13.8891 4.15304 14.0673 4.29289 14.2071C4.43275 14.347 4.61093 14.4422 4.80491 14.4808C4.99889 14.5194 5.19996 14.4996 5.38268 14.4239C5.56541 14.3482 5.72159 14.22 5.83147 14.0556C5.94135 13.8911 6 13.6978 6 13.5C6 13.2348 5.89464 12.9804 5.70711 12.7929C5.51957 12.6054 5.26522 12.5 5 12.5ZM14.2563 4.2C14.2093 4.13826 14.1489 4.08811 14.0795 4.05344C14.0102 4.01876 13.9338 4.00048 13.8562 4H3.01875L2.5125 2.225C2.4518 2.01647 2.32525 1.83317 2.15177 1.7025C1.97829 1.57182 1.76719 1.50079 1.55 1.5H0.5C0.367392 1.5 0.240215 1.55268 0.146447 1.64645C0.0526784 1.74021 0 1.86739 0 2C0 2.13261 0.0526784 2.25979 0.146447 2.35355C0.240215 2.44732 0.367392 2.5 0.5 2.5H1.55L2.1625 4.63125V4.64375L3.8125 10.4125C3.9031 10.7256 4.0928 11.0008 4.35312 11.1969C4.61345 11.393 4.93034 11.4993 5.25625 11.5H11.2437C11.5697 11.4993 11.8866 11.393 12.1469 11.1969C12.4072 11.0008 12.5969 10.7256 12.6875 10.4125L14.3375 4.6375C14.3587 4.56325 14.3623 4.48512 14.3482 4.40921C14.3341 4.33331 14.3026 4.2617 14.2563 4.2Z" fill="#5480E9"/>
</g>
<defs>
<clipPath id="clip0_545_277">
<rect width="16" height="16" fill="white"/>
</clipPath>
</defs>
</svg>
