<svg width="2406" height="758" viewBox="0 0 2406 758" fill="none" xmlns="http://www.w3.org/2000/svg">
<path d="M915 172.932C915 168.249 916.658 164.251 919.975 160.938C923.405 157.511 927.465 155.798 932.154 155.798H932.325L1103.69 154.77H1104.03C1108.72 154.77 1112.73 156.483 1116.04 159.91C1119.47 163.223 1121.19 167.221 1121.19 171.904C1121.19 176.588 1119.47 180.643 1116.04 184.07C1112.73 187.382 1108.72 189.039 1104.03 189.039H1103.86L1035.59 189.381L1034.73 386.085V386.257C1034.73 390.826 1033.02 394.767 1029.59 398.079C1026.27 401.392 1022.27 403.048 1017.58 403.048C1012.89 403.048 1008.83 401.392 1005.4 398.079C1002.08 394.767 1000.43 390.826 1000.43 386.257V385.914L1001.28 189.553L932.325 190.067H932.154C927.465 190.067 923.405 188.41 919.975 185.098C916.658 181.671 915 177.616 915 172.932Z" fill="white"/>
<path d="M1141.77 167.62C1141.77 163.051 1143.43 159.167 1146.75 155.969C1150.06 152.656 1154.12 151 1158.93 151C1163.61 151 1167.62 152.656 1170.93 155.969C1174.36 159.167 1176.08 163.051 1176.08 167.62V242.327C1180.42 233.074 1186.77 225.992 1195.12 221.08C1203.47 216.054 1211.53 213.541 1219.31 213.541C1237.26 213.541 1251.9 217.196 1263.22 224.507C1274.66 231.818 1283.06 241.984 1288.44 255.006C1293.81 268.029 1296.5 283.05 1296.5 300.07V301.612L1296.33 388.141V388.313C1296.33 392.882 1294.61 396.823 1291.18 400.136C1287.86 403.334 1283.86 404.933 1279.17 404.933C1274.48 404.933 1270.42 403.334 1266.99 400.136C1263.68 396.823 1262.02 392.882 1262.02 388.313V388.141L1262.19 302.469V302.126C1262.19 284.535 1259.27 271.113 1253.44 261.86C1247.61 252.608 1236.23 247.981 1219.31 247.981C1205.01 247.981 1194.26 252.95 1187.06 262.888C1179.97 272.826 1176.42 285.62 1176.42 301.27V388.484C1176.42 393.053 1174.71 396.994 1171.28 400.307C1167.96 403.505 1163.96 405.105 1159.27 405.105C1154.35 405.105 1150.18 403.448 1146.75 400.136C1143.43 396.709 1141.77 392.825 1141.77 388.484V167.62Z" fill="white"/>
<path d="M1412.63 213.884C1427.84 213.884 1441.79 217.653 1454.48 225.192C1467.18 232.732 1477.36 242.898 1485.02 255.692C1492.79 268.371 1496.68 282.479 1496.68 298.014C1496.68 301.212 1496.51 304.468 1496.17 307.781C1495.71 312.007 1493.77 315.605 1490.34 318.575C1487.02 321.431 1483.25 322.859 1479.01 322.859L1359.11 323.03C1361.05 331.255 1364.71 338.965 1370.09 346.162C1375.46 353.358 1381.98 359.184 1389.64 363.639C1397.42 368.094 1405.88 370.322 1415.03 370.322C1424.87 370.322 1433.67 367.923 1441.45 363.125C1449.22 358.327 1455.28 352.787 1459.63 346.505C1461 344.334 1463.06 342.507 1465.81 341.022C1468.66 339.537 1471.35 338.794 1473.87 338.794C1478.56 338.794 1482.56 340.508 1485.88 343.934C1489.31 347.361 1491.02 351.416 1491.02 356.1C1491.02 359.755 1489.99 363.011 1487.93 365.867C1480.84 376.262 1471.07 385.286 1458.6 392.939C1446.25 400.478 1431.9 404.248 1415.55 404.248C1402.39 404.248 1390.16 401.678 1378.84 396.537C1367.63 391.397 1357.85 384.372 1349.5 375.462C1341.16 366.552 1334.64 356.328 1329.95 344.791C1325.37 333.14 1323.09 320.86 1323.09 307.952C1323.09 295.501 1325.37 283.678 1329.95 272.484C1334.52 261.175 1340.87 251.123 1348.99 242.327C1357.22 233.531 1366.77 226.62 1377.64 221.594C1388.5 216.454 1400.16 213.884 1412.63 213.884ZM1461.35 288.59C1459.17 277.395 1453.57 267.857 1444.53 259.975C1435.5 252.094 1424.87 248.153 1412.63 248.153C1400.16 248.153 1389.13 252.208 1379.52 260.318C1370.03 268.428 1363.63 277.909 1360.31 288.761L1461.35 288.59Z" fill="white"/>
<path d="M1620.36 274.197V271.97L1620.19 173.104C1620.19 168.42 1621.85 164.422 1625.16 161.109C1628.48 157.797 1632.43 156.083 1637 155.969L1682.11 155.112C1684.63 154.998 1687.09 154.941 1689.49 154.941C1691.89 154.941 1694.24 154.941 1696.52 154.941C1709.1 154.941 1721.34 156.312 1733.23 159.053C1745.12 161.795 1755.76 166.021 1765.14 171.733C1774.63 177.444 1782.12 184.869 1787.61 194.008C1793.21 203.032 1796.01 213.884 1796.01 226.563C1796.01 243.012 1790.35 257.177 1779.03 269.057C1787.04 274.882 1793.56 282.593 1798.59 292.188C1803.62 301.669 1806.13 312.693 1806.13 325.258C1806.13 341.478 1802.65 355.186 1795.67 366.381C1788.7 377.461 1779.09 385.914 1766.85 391.74C1754.62 397.565 1740.55 400.65 1724.65 400.992L1638.03 401.164H1637.69C1633 401.164 1628.94 399.507 1625.51 396.195C1622.19 392.768 1620.53 388.713 1620.53 384.029L1620.36 274.197ZM1761.71 227.591C1761.71 217.196 1758.16 209.257 1751.07 203.774C1744.1 198.177 1735.29 194.35 1724.65 192.294C1714.13 190.238 1703.5 189.21 1692.75 189.21C1691.15 189.21 1689.49 189.267 1687.77 189.381C1686.06 189.381 1684.4 189.381 1682.8 189.381L1654.5 189.895L1654.67 255.863L1720.71 254.835C1727.69 254.721 1734.26 253.921 1740.44 252.436C1746.73 250.837 1751.81 248.095 1755.7 244.212C1759.71 240.214 1761.71 234.673 1761.71 227.591ZM1723.97 366.723C1739.29 366.495 1751.07 363.239 1759.31 356.957C1767.65 350.56 1771.83 339.708 1771.83 324.401C1771.83 310.808 1767.31 301.555 1758.28 296.643C1749.24 291.617 1737.69 289.104 1723.63 289.104H1721.4L1654.67 290.132L1654.84 366.552L1723.97 366.723Z" fill="white"/>
<path d="M1954.17 234.959C1954.17 244.097 1949.77 249.181 1940.96 250.209C1937.76 250.551 1933.7 249.523 1928.78 247.125C1923.87 244.611 1918.89 243.355 1913.86 243.355C1903.91 243.355 1896.02 245.925 1890.19 251.065C1884.36 256.092 1880.18 262.888 1877.67 271.455C1875.15 280.023 1873.89 289.618 1873.89 300.241V388.655C1873.89 393.682 1872.35 397.68 1869.26 400.65C1866.29 403.62 1862.11 405.105 1856.74 405.105C1851.48 405.105 1847.3 403.62 1844.22 400.65C1841.13 397.68 1839.58 393.624 1839.58 388.484V230.675C1839.58 225.535 1840.84 221.309 1843.36 217.996C1845.99 214.683 1849.53 213.027 1853.99 213.027C1856.62 213.027 1859.65 214.169 1863.09 216.454C1866.63 218.624 1869.09 222.394 1870.46 227.763L1872.18 240.099C1873.66 236.901 1876.52 233.188 1880.75 228.962C1884.98 224.735 1890.02 221.08 1895.85 217.996C1901.68 214.797 1907.74 213.198 1914.03 213.198C1925.7 213.198 1935.3 214.569 1942.85 217.31C1950.4 219.938 1954.17 225.821 1954.17 234.959Z" fill="white"/>
<path d="M2056.75 212.513C2065.21 212.513 2073.45 214.226 2081.45 217.653C2089.57 220.966 2096.78 225.192 2103.07 230.333C2109.47 235.359 2114.22 240.556 2117.3 245.925L2119.19 229.476C2119.19 224.793 2120.56 220.795 2123.31 217.482C2126.05 214.055 2129.77 212.341 2134.46 212.341C2139.15 212.341 2143.15 214.055 2146.46 217.482C2149.9 220.795 2151.61 224.793 2151.61 229.476V229.819L2151.27 388.484C2151.27 393.168 2149.55 397.223 2146.12 400.65C2142.8 403.962 2138.8 405.619 2134.11 405.619C2129.43 405.619 2125.71 403.962 2122.96 400.65C2120.22 397.223 2118.85 393.168 2118.85 388.484L2116.96 374.777C2111.01 384.943 2102.32 392.539 2090.89 397.565C2079.45 402.477 2067.96 404.933 2056.41 404.933C2043.48 404.933 2031.36 402.42 2020.04 397.394C2008.72 392.254 1998.77 385.229 1990.19 376.319C1981.62 367.409 1974.87 357.185 1969.95 345.648C1965.15 334.111 1962.75 321.945 1962.75 309.151C1962.75 296.472 1965.09 284.363 1969.78 272.826C1974.58 261.175 1981.22 250.837 1989.68 241.813C1998.26 232.674 2008.21 225.535 2019.53 220.395C2030.96 215.14 2043.37 212.513 2056.75 212.513ZM2115.93 308.809C2115.93 297.614 2113.3 287.333 2108.04 277.967C2102.89 268.6 2095.86 261.061 2086.94 255.349C2078.02 249.638 2067.84 246.782 2056.41 246.782C2045.2 246.782 2035.08 249.638 2026.05 255.349C2017.01 261.061 2009.86 268.657 2004.6 278.138C1999.34 287.505 1996.71 297.671 1996.71 308.637C1996.71 319.718 1999.4 329.998 2004.77 339.479C2010.15 348.846 2017.35 356.385 2026.39 362.097C2035.54 367.809 2045.6 370.664 2056.58 370.664C2067.56 370.664 2077.51 367.809 2086.43 362.097C2095.46 356.385 2102.61 348.846 2107.87 339.479C2113.24 329.998 2115.93 319.775 2115.93 308.809Z" fill="white"/>
<path d="M2203.59 195.721C2198.33 195.721 2194.04 194.122 2190.72 190.923C2187.4 187.611 2185.69 183.556 2185.57 178.758L2185.23 165.736C2185.23 161.395 2187.18 157.911 2191.06 155.284C2194.95 152.542 2198.67 151.171 2202.21 151.171C2207.02 151.171 2211.02 152.828 2214.22 156.14C2217.54 159.453 2219.25 163.451 2219.37 168.134L2219.54 178.415C2219.54 182.87 2218.05 186.868 2215.08 190.409C2212.11 193.95 2208.28 195.721 2203.59 195.721ZM2185.06 228.105C2185.06 223.764 2186.89 220.223 2190.55 217.482C2194.21 214.74 2197.75 213.37 2201.18 213.37C2206.22 213.37 2210.51 214.855 2214.05 217.825C2217.6 220.795 2219.37 224.735 2219.37 229.647V229.819L2219.71 388.484C2219.71 393.053 2218 396.937 2214.56 400.136C2211.25 403.334 2207.25 404.933 2202.56 404.933C2197.75 404.933 2193.69 403.334 2190.38 400.136C2187.06 396.823 2185.4 392.882 2185.4 388.313L2185.06 228.105Z" fill="white"/>
<path d="M2286.61 240.442C2292.79 234.388 2300.16 228.391 2308.74 222.451C2317.43 216.511 2327.49 213.541 2338.93 213.541C2353.91 213.541 2366.37 217.539 2376.32 225.535C2386.27 233.417 2393.59 242.612 2398.28 253.122C2401.94 261.46 2404.11 269.742 2404.8 277.967C2405.6 286.077 2406 293.73 2406 300.927V387.456C2406 392.139 2404.28 396.195 2400.85 399.622C2397.54 402.934 2393.54 404.591 2388.85 404.591C2384.16 404.591 2380.1 402.934 2376.67 399.622C2373.35 396.195 2371.69 392.139 2371.69 387.456V300.927C2371.69 294.187 2371.35 287.962 2370.66 282.25C2370.09 276.539 2368.83 271.513 2366.89 267.172C2364.72 262.146 2361.34 257.691 2356.77 253.807C2352.19 249.809 2346.36 247.81 2339.27 247.81C2322.35 247.81 2309.31 254.264 2300.16 267.172C2291.13 280.08 2286.67 297.5 2286.78 319.432L2286.95 387.799C2286.95 392.482 2285.24 396.537 2281.81 399.964C2278.49 403.277 2274.49 404.933 2269.8 404.933C2265 404.933 2260.94 403.277 2257.62 399.964C2254.3 396.537 2252.65 392.425 2252.65 387.627L2252.3 230.161C2252.3 225.478 2253.56 221.48 2256.08 218.167C2258.71 214.74 2262.37 213.027 2267.05 213.027C2271.74 213.027 2275.35 214.74 2277.86 218.167C2280.38 221.48 2282.32 225.478 2283.69 230.161L2286.61 240.442Z" fill="white"/>
<path d="M1062.18 563.577C1062.18 575.342 1058.75 586.08 1051.89 595.789C1045.14 605.385 1035.42 614.123 1022.73 622.005C1028.79 629.544 1034.45 636.512 1039.71 642.909C1044.97 649.306 1049.83 655.246 1054.29 660.729C1056.69 652.162 1058.06 643.48 1058.4 634.685C1058.52 630.687 1060.12 627.146 1063.21 624.061C1066.41 620.977 1070.24 619.435 1074.7 619.435C1078.02 619.435 1081.56 620.692 1085.34 623.205C1089.11 625.604 1091 628.802 1091 632.8C1091 653.019 1086.65 671.981 1077.96 689.687C1086.42 700.424 1092.77 708.477 1097 713.846C1101.23 719.101 1103.63 722.128 1104.21 722.927C1105.69 724.984 1106.44 727.954 1106.44 731.837C1106.44 736.407 1104.72 740.176 1101.29 743.146C1097.97 746.116 1094.08 747.601 1089.62 747.601C1084.48 747.601 1080.19 745.317 1076.76 740.747C1073.21 735.95 1069.9 731.552 1066.81 727.554C1063.72 723.556 1061.04 720.072 1058.75 717.102C1051.2 725.212 1042.17 732.123 1031.65 737.834C1021.12 743.546 1009.06 746.402 995.451 746.402C982.3 746.402 970.292 743.546 959.428 737.834C948.564 732.123 939.873 724.298 933.354 714.36C926.95 704.422 923.748 693.113 923.748 680.434C923.748 663.185 928.323 649.592 937.471 639.654C946.734 629.602 958.913 620.52 974.009 612.41C968.977 605.785 963.774 598.36 958.399 590.135C953.024 581.796 950.337 572.544 950.337 562.377C950.337 552.439 952.91 543.415 958.056 535.305C963.202 527.194 969.949 520.74 978.297 515.943C986.76 511.145 995.737 508.746 1005.23 508.746C1015.98 508.746 1025.64 511.145 1034.22 515.943C1042.8 520.74 1049.6 527.309 1054.63 535.647C1059.66 543.872 1062.18 553.182 1062.18 563.577ZM1002.66 597.332C1012.15 591.62 1019.01 585.966 1023.24 580.368C1027.47 574.657 1029.59 569.003 1029.59 563.405C1029.59 557.351 1027.36 552.211 1022.9 547.984C1018.55 543.758 1013.18 541.644 1006.77 541.644C1000.14 541.644 994.479 543.644 989.79 547.642C985.101 551.64 982.757 557.008 982.757 563.748C982.757 568.546 984.358 573.229 987.56 577.798C990.762 582.367 995.794 588.879 1002.66 597.332ZM994.079 637.426C984.015 642.681 975.152 648.621 967.49 655.246C959.828 661.872 955.997 669.468 955.997 678.035C955.997 688.087 959.714 696.54 967.147 703.394C974.695 710.248 984.187 713.675 995.622 713.675C1004.43 713.675 1012.6 711.39 1020.15 706.821C1027.7 702.252 1033.76 697.34 1038.34 692.085C1031.13 683.175 1023.87 674.208 1016.55 665.184C1009.23 656.046 1001.74 646.793 994.079 637.426Z" fill="white"/>
<path d="M1228.23 510.802C1228.23 506.347 1230.06 502.749 1233.72 500.008C1237.38 497.266 1240.92 495.895 1244.35 495.895C1249.15 496.01 1253.39 497.552 1257.04 500.522C1260.7 503.492 1262.53 507.49 1262.53 512.516L1262.71 608.812L1391.02 608.64L1391.19 512.516C1390.84 507.947 1392.39 504.063 1395.82 500.864C1399.36 497.552 1403.48 495.895 1408.17 495.895C1412.86 495.895 1416.92 497.495 1420.35 500.693C1423.78 503.891 1425.49 507.832 1425.49 512.516L1425.32 730.295C1425.32 734.865 1423.61 738.805 1420.18 742.118C1416.86 745.317 1412.86 746.916 1408.17 746.916C1403.48 746.916 1399.42 745.374 1395.99 742.289C1392.67 739.091 1391.02 735.207 1391.02 730.638V643.252L1262.88 643.423L1263.05 730.809C1263.05 735.493 1261.39 739.434 1258.07 742.632C1254.76 745.831 1250.7 747.43 1245.89 747.43C1241.21 747.43 1237.15 745.831 1233.72 742.632C1230.4 739.319 1228.74 735.379 1228.74 730.809C1228.63 694.484 1228.51 658.159 1228.4 621.834C1228.4 585.395 1228.34 549.012 1228.23 512.687V510.802Z" fill="white"/>
<path d="M1538.19 558.265C1553.4 558.265 1567.36 562.035 1580.05 569.574C1592.74 577.113 1602.92 587.279 1610.58 600.073C1618.36 612.753 1622.25 626.86 1622.25 642.395C1622.25 645.594 1622.08 648.849 1621.73 652.162C1621.28 656.388 1619.33 659.987 1615.9 662.957C1612.58 665.812 1608.81 667.24 1604.58 667.24L1484.67 667.412C1486.62 675.636 1490.28 683.347 1495.65 690.543C1501.03 697.74 1507.55 703.565 1515.21 708.02C1522.98 712.475 1531.45 714.703 1540.6 714.703C1550.43 714.703 1559.24 712.304 1567.01 707.506C1574.79 702.709 1580.85 697.169 1585.2 690.886C1586.57 688.716 1588.63 686.888 1591.37 685.403C1594.23 683.918 1596.92 683.175 1599.43 683.175C1604.12 683.175 1608.12 684.889 1611.44 688.316C1614.87 691.743 1616.59 695.798 1616.59 700.481C1616.59 704.137 1615.56 707.392 1613.5 710.248C1606.41 720.643 1596.63 729.667 1584.17 737.32C1571.82 744.86 1557.46 748.629 1541.11 748.629C1527.96 748.629 1515.72 746.059 1504.4 740.919C1493.19 735.778 1483.42 728.753 1475.07 719.843C1466.72 710.933 1460.2 700.71 1455.51 689.172C1450.94 677.521 1448.65 665.241 1448.65 652.333C1448.65 639.882 1450.94 628.059 1455.51 616.865C1460.09 605.556 1466.43 595.504 1474.55 586.708C1482.79 577.912 1492.34 571.002 1503.2 565.975C1514.06 560.835 1525.73 558.265 1538.19 558.265ZM1586.91 632.971C1584.74 621.777 1579.13 612.239 1570.1 604.357C1561.07 596.475 1550.43 592.534 1538.19 592.534C1525.73 592.534 1514.69 596.589 1505.09 604.699C1495.6 612.81 1489.19 622.291 1485.88 633.143L1586.91 632.971Z" fill="white"/>
<path d="M1739.41 556.894C1747.87 556.894 1756.1 558.608 1764.11 562.035C1772.23 565.347 1779.43 569.574 1785.72 574.714C1792.13 579.74 1796.87 584.938 1799.96 590.306L1801.85 573.857C1801.85 569.174 1803.22 565.176 1805.96 561.863C1808.71 558.436 1812.42 556.723 1817.11 556.723C1821.8 556.723 1825.8 558.436 1829.12 561.863C1832.55 565.176 1834.27 569.174 1834.27 573.857V574.2L1833.92 732.865C1833.92 737.549 1832.21 741.604 1828.78 745.031C1825.46 748.344 1821.46 750 1816.77 750C1812.08 750 1808.36 748.344 1805.62 745.031C1802.88 741.604 1801.5 737.549 1801.5 732.865L1799.62 719.158C1793.67 729.324 1784.98 736.921 1773.54 741.947C1762.11 746.859 1750.61 749.315 1739.06 749.315C1726.14 749.315 1714.02 746.802 1702.7 741.775C1691.38 736.635 1681.43 729.61 1672.85 720.7C1664.27 711.79 1657.53 701.566 1652.61 690.029C1647.81 678.492 1645.4 666.326 1645.4 653.533C1645.4 640.853 1647.75 628.745 1652.44 617.208C1657.24 605.556 1663.87 595.218 1672.34 586.194C1680.91 577.056 1690.86 569.916 1702.18 564.776C1713.62 559.521 1726.03 556.894 1739.41 556.894ZM1798.59 653.19C1798.59 641.996 1795.96 631.715 1790.7 622.348C1785.55 612.981 1778.52 605.442 1769.6 599.73C1760.68 594.019 1750.5 591.163 1739.06 591.163C1727.86 591.163 1717.74 594.019 1708.7 599.73C1699.67 605.442 1692.52 613.038 1687.26 622.519C1682 631.886 1679.37 642.053 1679.37 653.019C1679.37 664.099 1682.06 674.38 1687.43 683.861C1692.81 693.228 1700.01 700.767 1709.04 706.478C1718.19 712.19 1728.26 715.046 1739.24 715.046C1750.21 715.046 1760.16 712.19 1769.08 706.478C1778.12 700.767 1785.26 693.228 1790.53 683.861C1795.9 674.38 1798.59 664.156 1798.59 653.19Z" fill="white"/>
<path d="M1982.3 579.34C1982.3 588.479 1977.9 593.562 1969.1 594.59C1965.89 594.933 1961.83 593.905 1956.92 591.506C1952 588.993 1947.02 587.736 1941.99 587.736C1932.04 587.736 1924.15 590.306 1918.32 595.447C1912.49 600.473 1908.31 607.27 1905.8 615.837C1903.28 624.404 1902.02 633.999 1902.02 644.623V733.037C1902.02 738.063 1900.48 742.061 1897.39 745.031C1894.42 748.001 1890.25 749.486 1884.87 749.486C1879.61 749.486 1875.44 748.001 1872.35 745.031C1869.26 742.061 1867.72 738.006 1867.72 732.865V575.057C1867.72 569.916 1868.97 565.69 1871.49 562.377C1874.12 559.065 1877.67 557.408 1882.13 557.408C1884.76 557.408 1887.79 558.55 1891.22 560.835C1894.76 563.005 1897.22 566.775 1898.59 572.144L1900.31 584.481C1901.8 581.282 1904.65 577.57 1908.89 573.343C1913.12 569.117 1918.15 565.461 1923.98 562.377C1929.81 559.179 1935.87 557.58 1942.16 557.58C1953.83 557.58 1963.43 558.95 1970.98 561.692C1978.53 564.319 1982.3 570.202 1982.3 579.34Z" fill="white"/>
<path d="M2029.48 527.08C2029.48 522.397 2031.13 518.399 2034.45 515.086C2037.77 511.659 2041.83 509.946 2046.63 509.946C2051.32 509.946 2055.32 511.659 2058.64 515.086C2062.07 518.399 2063.78 522.397 2063.78 527.08V561.178H2086.77C2091.23 561.178 2095.06 562.777 2098.26 565.975C2101.46 569.174 2103.07 573.001 2103.07 577.456C2103.07 581.91 2101.46 585.737 2098.26 588.936C2095.06 592.134 2091.23 593.733 2086.77 593.733H2063.61L2063.44 699.796V700.139C2063.44 705.736 2064.07 709.62 2065.33 711.79C2066.59 713.846 2069.16 714.874 2073.05 714.874C2077.96 714.874 2082.31 713.561 2086.08 710.933C2087.46 710.02 2089.11 709.22 2091.06 708.534C2093 707.735 2094.89 707.335 2096.72 707.335C2101.41 707.335 2105.41 708.991 2108.73 712.304C2112.16 715.617 2113.87 719.615 2113.87 724.298C2113.87 729.895 2111.59 734.408 2107.01 737.834C2102.67 741.147 2097.69 743.889 2092.09 746.059C2086.48 748.229 2080.48 749.315 2074.08 749.315C2059.67 749.315 2048.57 744.917 2040.8 736.121C2033.02 727.211 2029.13 716.131 2029.13 702.88V701.338L2029.3 593.905H2007.18C2002.72 593.905 1998.89 592.305 1995.68 589.107C1992.48 585.909 1990.88 582.082 1990.88 577.627C1990.88 573.172 1992.48 569.345 1995.68 566.147C1998.89 562.948 2002.72 561.349 2007.18 561.349H2029.48V527.08Z" fill="white"/>
<path d="M184.851 379.158C40.0002 379.158 40.0002 237.842 40.0002 237.842C40.0002 185.371 60.2859 135.049 96.3947 97.9465C132.504 60.8439 181.478 39.9999 232.543 39.9999C283.609 39.9999 332.583 60.8439 368.691 97.9465C404.8 135.049 425.086 185.371 425.086 237.842L425.086 492.211C425.086 525.773 414.487 554.036 380.925 561.102" stroke="url(#paint0_linear_197_18)" stroke-width="79.25" stroke-linecap="round"/>
<path d="M442.751 379.158L188.382 379.158" stroke="url(#paint1_linear_197_18)" stroke-width="79.25" stroke-linecap="round"/>
<path d="M432.15 379.158C577 379.158 577 520.474 577 520.474C577 572.945 556.715 623.267 520.606 660.37C484.497 697.472 435.523 718.316 384.457 718.316C333.392 718.316 284.418 697.472 248.309 660.37C212.2 623.267 191.914 572.945 191.914 520.474L191.914 266.105C190.737 233.132 206.046 199.687 241.375 188.381" stroke="url(#paint2_linear_197_18)" stroke-width="79.25" stroke-linecap="round"/>
<defs>
<linearGradient id="paint0_linear_197_18" x1="425.086" y1="501.043" x2="130.089" y2="92.9933" gradientUnits="userSpaceOnUse">
<stop stop-color="#5580E9"/>
<stop offset="1" stop-color="#8860D0"/>
</linearGradient>
<linearGradient id="paint1_linear_197_18" x1="47.0659" y1="186.615" x2="640.592" y2="186.615" gradientUnits="userSpaceOnUse">
<stop stop-color="#6E71DD"/>
<stop offset="1" stop-color="#6C72DF"/>
</linearGradient>
<linearGradient id="paint2_linear_197_18" x1="191.914" y1="266.105" x2="492.21" y2="686.52" gradientUnits="userSpaceOnUse">
<stop stop-color="#5580E9"/>
<stop offset="1" stop-color="#8860D0"/>
</linearGradient>
</defs>
</svg>
